<?xml version="1.0" encoding="utf-8"?>
<!-- Generator: Adobe Illustrator 25.1.0, SVG Export Plug-In . SVG Version: 6.00 Build 0)  -->
<svg version="1.1" id="Layer_1" xmlns="http://www.w3.org/2000/svg" xmlns:xlink="http://www.w3.org/1999/xlink" x="0px" y="0px"
	 viewBox="0 0 1190.55 841.89" style="enable-background:new 0 0 1190.55 841.89;" xml:space="preserve">
<style type="text/css">
	.st0{fill-rule:evenodd;clip-rule:evenodd;fill:#213569;}
	.st1{fill:#FFFFFF;}
	.st2{fill:#E8262A;}
	.st3{fill:#159ED9;}
	.st4{fill:#221F1F;}
	.st5{fill:#FCD502;}
	.st6{fill:#33B04B;}
	.st7{fill:none;}
</style>
<g>
	<polygon class="st0" points="290.27,737.99 290.27,629.52 360.42,587.67 239.18,587.67 275.33,662.83 239.18,737.99 	"/>
	<rect x="303.1" y="634.17" class="st0" width="584.36" height="150.3"/>
	<polygon class="st0" points="951.38,737.99 915.23,662.83 951.38,587.67 830.16,587.67 900.29,629.52 900.29,737.99 	"/>
	<path class="st1" d="M387.12,730.91c-1.95-0.01-3.65-0.54-5.1-1.6c-1.45-1.06-2.42-2.48-2.92-4.27c-1.7-6.73-2.55-13.3-2.55-19.71
		c0.02-4.66,0.29-9.04,0.79-13.15c0.78-6.41,2.01-12.34,3.7-17.79c0,0-0.1,0.03-0.22,0.09c-0.12,0.06-0.28,0.11-0.46,0.17
		c-0.19,0.06-0.4,0.13-0.63,0.21c-0.23,0.08-0.4,0.13-0.5,0.15c-2,0.8-3.84,1.95-5.52,3.46s-2.69,3.32-3.01,5.43
		c-0.17,0.96-0.74,1.57-1.72,1.82l-0.15,0.03c-0.26,0-0.45-0.14-0.55-0.41c-0.49-1.63-0.63-3.29-0.43-4.99
		c0.45-3.7,2.36-6.7,5.73-9.01c2.46-1.67,5.07-2.77,7.81-3.29c0.58-0.11,1.16-0.17,1.73-0.17c1.88,0.01,3.61,0.63,5.22,1.87
		c1.82,1.43,2.56,3.57,2.21,6.41c-0.14,1.1-0.35,2.2-0.65,3.3l-0.36,1.48c-0.99,4.41-1.7,8.41-2.14,12.01
		c-0.57,4.64-0.8,9.26-0.69,13.88c0.17,6.43,1.28,11.49,3.35,15.19c0.37-0.71,0.7-1.44,0.98-2.2c0.17-0.46,0.36-0.91,0.55-1.34
		c3.22-7.11,6.95-14,11.18-20.67c6.46-10.29,13.7-19.22,21.72-26.78c1.38-1.17,4.29-2.26,8.74-3.29l0.22-0.03
		c0.36,0,0.61,0.15,0.76,0.45c0.08,0.14,0.11,0.29,0.09,0.45c-0.02,0.21-0.12,0.41-0.29,0.62c-5.82,5.82-11.19,12.28-16.12,19.37
		c-4.93,7.09-9.21,13.9-12.86,20.42c-3.65,6.52-6.45,11.84-8.43,15.94c-0.93,1.81-2.26,3.25-3.99,4.33
		C390.91,730.38,389.07,730.91,387.12,730.91"/>
	<path class="st1" d="M456.19,705.09c0.05,0.15,0.02,0.3-0.09,0.47c-0.46,0.66-0.94,1.35-1.43,2.06c-1.11,1.7-2.35,3.38-3.72,5.05
		c-1.87,2.25-3.79,3.99-5.77,5.22c-1.45,0.83-2.86,1.48-4.23,1.95c-1.36,0.48-2.99,0.82-4.86,1.02c-0.16,0.14-0.31,0.29-0.45,0.45
		c-2.59,3.69-5.52,6.37-8.8,8.04c-3.28,1.67-6.35,1.98-9.22,0.95c-3.18-1.41-5.04-4.15-5.59-8.21c-0.55-4.06,0.35-8.52,2.7-13.35
		c2.51-4.79,5.64-8.35,9.41-10.69c3.76-2.33,7.3-2.91,10.6-1.73c1.47,0.6,2.67,1.56,3.61,2.87c1.49,2.21,2.2,4.83,2.14,7.86
		c-0.04,2.64-0.56,5.26-1.56,7.85l-0.05,0.1c-0.04,0.12-0.1,0.28-0.18,0.48c-0.08,0.21-0.18,0.42-0.27,0.62
		c1.16-0.14,2.39-0.45,3.7-0.94c1.3-0.49,2.62-1.22,3.95-2.18c0.21-0.18,0.42-0.37,0.64-0.55c0.95-0.83,1.85-1.72,2.68-2.68
		c0.61-0.73,1.2-1.49,1.77-2.27c0.23-0.32,0.47-0.64,0.72-0.96c0.32-0.46,0.65-0.85,1.01-1.17c0.36-0.32,0.79-0.48,1.29-0.48
		c0.33,0,0.61,0,0.84,0c0.23,0,0.5,0,0.84,0C456.02,704.87,456.13,704.94,456.19,705.09 M420.39,725.99c0.72,0.35,1.9,0.08,3.55-0.8
		c1.65-0.88,3.41-2.43,5.27-4.66c-1.4-0.39-2.85-1.12-4.33-2.18c-1.49-1.06-2.86-2.59-4.11-4.59c-0.93,2.98-1.42,5.65-1.44,8
		C419.31,724.13,419.66,725.53,420.39,725.99 M433.38,700.41c-0.87-0.3-2.13,0.1-3.8,1.21c-1.67,1.11-3.36,2.79-5.08,5.03
		c0.26,1.59,0.96,3.22,2.11,4.91c1.15,1.69,3.05,3.09,5.69,4.2c0.03-0.09,0.08-0.17,0.14-0.24c0.12-0.23,0.24-0.47,0.34-0.72
		c1.42-3.26,2.13-6.34,2.12-9.24C434.89,702.65,434.38,700.94,433.38,700.41"/>
	<path class="st1" d="M454.9,731c-1.12,0-2.22-0.22-3.31-0.66c-1.5-0.74-2.63-1.84-3.37-3.31c-1.02-2-1.39-4.11-1.12-6.34
		c0.12-0.96,0.38-1.86,0.79-2.68l1.47-3.03c3.29-6.74,6.15-12.46,8.58-17.16c0.36-0.78,0.91-1.32,1.66-1.61
		c0.25-0.09,0.53-0.14,0.84-0.14c0.59,0,1.29,0.17,2.11,0.52c2.46,1.25,3.56,2.98,3.29,5.21c-0.04,0.3-0.11,0.57-0.21,0.83
		c-0.1,0.25-1.87,4.13-5.3,11.64c-3.43,7.51-5.15,11.28-5.15,11.3c-0.01,0.09,0.05,0.14,0.2,0.14c0.17,0,0.39-0.03,0.65-0.1
		c2.57-0.64,5.34-2.27,8.29-4.91c2.01-1.83,6.6-6.88,13.79-15.15c0.6-0.66,1.35-1.01,2.23-1.03l1.99,0c0.31,0,0.45,0.14,0.41,0.42
		c-0.02,0.14-2.4,3.02-7.15,8.66c-5.89,6.97-9.62,11.24-11.22,12.82c-1.64,1.56-3.6,2.83-5.88,3.81
		C457.28,730.74,456.09,731.01,454.9,731 M470.3,690.34c-0.26,0-0.54-0.06-0.83-0.18l-4.53-1.73c-0.93-0.37-1.33-1.06-1.21-2.07
		c0.03-0.25,0.1-0.51,0.2-0.76l2.34-4.61c0.36-0.78,0.91-1.31,1.65-1.58c0.27-0.09,0.56-0.14,0.87-0.14c0.59,0,1.29,0.18,2.08,0.52
		c1.74,0.88,2.8,1.97,3.16,3.28c0.16,0.6,0.21,1.23,0.12,1.9c-0.04,0.32-0.11,0.61-0.21,0.86l-0.15,0.38l-1.17,2.58
		c-0.31,0.62-0.77,1.06-1.37,1.31C470.95,690.26,470.63,690.34,470.3,690.34"/>
	<path class="st1" d="M515.5,704.39c0.17,0,0.28,0.08,0.34,0.24c0.06,0.16,0.04,0.31-0.07,0.45c-2.65,3.21-5.32,6.39-8.01,9.55
		c-0.44,0.53-0.9,1.07-1.37,1.61c-2.22,2.8-4.65,5.42-7.3,7.87c-1.36,1.21-2.85,2.35-4.48,3.42c-1.63,1.06-3.31,1.9-5.05,2.52
		c-0.33,0.16-0.68,0.3-1.05,0.41c-1.18,0.34-2.39,0.52-3.63,0.54c-1.24,0.02-2.44-0.04-3.62-0.18c-1.01-0.12-1.93-0.41-2.76-0.89
		c-0.83-0.47-1.55-1-2.14-1.57c-0.6-0.58-1.22-1.3-1.87-2.18c-0.91-1.68-1.19-3.64-0.83-5.89c0.36-2.25,1.14-4.62,2.35-7.12
		c1.61-3.62,3.55-7,5.83-10.14c1.84-2.43,3.62-4.17,5.34-5.22c1.72-1.05,3.36-1.59,4.93-1.61h0.25c0.71,0,1.4,0.07,2.08,0.21
		c1.27,0.33,2.44,0.81,3.53,1.45c0.79,0.51,1.54,1.07,2.25,1.69c0.19,0.19,0.4,0.37,0.61,0.55c0.99,1.02,1.59,1.96,1.79,2.85
		c0.2,0.88,0.18,1.74-0.06,2.57c-0.15,0.62-0.43,1.44-0.85,2.46c-0.42,1.02-0.83,1.99-1.23,2.91c-0.29,0.57-0.7,1-1.24,1.29
		c-0.55,0.28-1.12,0.36-1.72,0.22l-2.57-0.59c-0.16-0.04-0.27-0.14-0.32-0.28c-0.05-0.14-0.05-0.29,0.02-0.45
		c0.77-1.6,1.53-3.5,2.3-5.68c0.07-0.37,0.12-0.71,0.16-1.03c0.09-0.76-0.1-1.41-0.58-1.97c-0.24-0.34-0.58-0.55-0.99-0.62
		c-0.66,0-1.32,0.11-1.97,0.34c-0.82,0.27-1.58,0.66-2.28,1.16c-1.67,1.26-3.09,2.75-4.25,4.47c-1.21,1.69-2.26,3.45-3.17,5.26
		c-0.66,1.35-1.15,2.38-1.45,3.09c-0.13,0.3-0.21,0.5-0.25,0.59c-0.09,0.14-0.25,0.48-0.48,1.02c-0.23,0.54-0.45,1.19-0.67,1.94
		c-0.01,0.05-0.01,0.09-0.02,0.14c-0.01,0.05-0.02,0.08-0.05,0.1c-0.19,0.76-0.25,1.5-0.18,2.22c0.07,0.72,0.37,1.34,0.9,1.84
		c0.1,0.12,0.22,0.23,0.35,0.35c0.36,0.21,0.75,0.36,1.19,0.45c2.57,0.51,4.9,0.46,6.97-0.15c2.07-0.62,3.8-1.41,5.17-2.38
		c1.38-0.97,2.31-1.74,2.81-2.28c1.35-1.38,3.29-3.46,5.79-6.25c2.5-2.79,4.94-5.56,7.32-8.28c0.6-0.67,1.35-1.01,2.23-1.03
		L515.5,704.39z"/>
	<path class="st1" d="M515.51,731.12c-2.04-0.01-3.69-0.35-4.93-1.05c-1.38-0.78-2.55-1.81-3.51-3.07l-0.49-0.66
		c-0.86-1.54-1.16-3.39-0.89-5.54c0.3-2.43,1.17-5.15,2.63-8.16c2.84-6.33,5.97-10.92,9.41-13.79c2.01-1.69,4.22-2.54,6.61-2.53
		c1.28,0,2.63,0.29,4.03,0.87c1.4,0.58,2.69,1.49,3.87,2.73c1.3,1.38,1.96,2.93,1.96,4.65c-0.01,0.48-0.05,0.96-0.11,1.45
		c-0.15,1.26-0.58,2.65-1.29,4.16c-2.61,5.64-6.32,8.46-11.12,8.44c-1.4,0-2.86-0.25-4.36-0.73c-2.01-0.67-3-1.08-2.99-1.21
		l-0.09,0.17c-0.46,0.82-0.84,1.8-1.14,2.92l-0.21,1.14c-0.17,1.42,0.11,2.48,0.86,3.17c0.27,0.37,0.78,0.64,1.54,0.8
		c1.02,0.23,1.99,0.35,2.91,0.35c2-0.07,3.81-0.43,5.41-1.09c2.7-1.12,4.78-2.48,6.23-4.08c2.38-2.38,6.75-7.22,13.1-14.5
		c0.6-0.66,1.33-1,2.19-1.03l2,0c0.31,0,0.45,0.14,0.41,0.42c-0.01,0.09-0.05,0.18-0.11,0.27l-1.21,1.44
		c-6.53,7.81-10.8,12.8-12.8,14.95c-3.98,4.22-8.07,7.09-12.28,8.61C519.28,730.83,517.39,731.12,515.51,731.12 M520.04,715.04
		c0.33,0,0.94-0.07,1.82-0.2c0.88-0.14,1.75-0.59,2.61-1.35c0.85-0.77,1.48-1.52,1.88-2.25c0.74-1.63,1.3-2.98,1.67-4.06l0.59-1.65
		c0.07-0.34,0.11-0.65,0.15-0.93c0.08-0.69,0.03-1.27-0.18-1.76c-0.28-0.62-0.73-0.93-1.35-0.93c-0.17,0-0.4,0.03-0.69,0.1
		c-1.12,0.27-2.18,0.75-3.17,1.44c-2.75,2.06-5.22,5.29-7.42,9.69c-0.13,0.3-0.27,0.59-0.42,0.86
		C517.25,714.69,518.75,715.04,520.04,715.04"/>
	<path class="st1" d="M579.47,751.76c-0.81,0-1.6-0.12-2.38-0.35c-2.02-0.76-3.56-1.92-4.6-3.49l-0.54-0.86
		c-2.15-2.85-2.99-6.14-2.54-9.85c0.17-1.4,0.55-2.7,1.15-3.89l1.51-3.03c3.07-6.3,5.91-12.01,8.5-17.1
		c3.88-8.21,8.77-18.7,14.67-31.47l5.75-12.35c0.4-0.76,1-1.13,1.81-1.13c0.29,0,0.57,0.06,0.84,0.17c2.26,1.32,3.63,3.02,4.12,5.11
		c0.05,0.14,0.06,0.37,0.02,0.69c-0.05,0.44-0.45,1.56-1.19,3.37c-0.68,1.67-2.28,5.24-4.8,10.7c-1.58,3.44-5.72,12.21-12.4,26.31
		c1.24,0.35,2.48,0.52,3.71,0.53c3.47,0.01,6.82-1.18,10.06-3.55c0.49-0.34,1.16-0.88,2.01-1.61c0.63-0.48,0.98-0.82,1.05-1.03
		l0.04-0.07c0.55-0.6,1.07-1.19,1.57-1.79l0.04-0.03c0.25-0.3,0.51-0.58,0.78-0.86c0.66-0.9,1.48-1.34,2.48-1.34l1.96,0
		c0.31,0,0.45,0.14,0.41,0.42c-0.01,0.09-0.05,0.19-0.1,0.27l-1.68,2.06c-1.27,1.67-2.7,3.36-4.29,5.05
		c-1.59,1.58-3.25,2.83-4.98,3.74c-3.65,1.92-7.09,3.07-10.29,3.45c2.42,3.17,3.52,6.71,3.3,10.61c-0.03,0.65-0.08,1.28-0.16,1.9
		c-0.39,3.24-1.47,6.46-3.23,9.67c-1.76,3.21-4.01,5.78-6.76,7.7C583.34,751.08,581.39,751.76,579.47,751.76 M578.52,741.67
		l0.11-0.03c5.92-0.65,9.31-4.45,10.15-11.38c0.21-1.68,0.23-3.35,0.08-5.03c-0.15-1.67-0.85-3.27-2.09-4.79l-8.64,20.06l-0.1,0.21
		c-0.06,0.11-0.11,0.32-0.15,0.62c-0.01,0.11,0.01,0.2,0.08,0.26C578.03,741.64,578.21,741.66,578.52,741.67"/>
	<path class="st1" d="M648.94,705.56c0.05,0.15,0.02,0.3-0.09,0.47c-0.46,0.66-0.94,1.35-1.43,2.06c-1.11,1.7-2.35,3.38-3.72,5.05
		c-1.87,2.25-3.79,3.98-5.77,5.22c-1.45,0.83-2.86,1.48-4.23,1.96c-1.36,0.48-2.99,0.82-4.86,1.02c-0.16,0.14-0.31,0.28-0.45,0.45
		c-2.59,3.69-5.52,6.37-8.8,8.04c-3.28,1.67-6.35,1.98-9.22,0.95c-3.18-1.41-5.04-4.15-5.59-8.21c-0.55-4.06,0.35-8.52,2.7-13.35
		c2.51-4.79,5.64-8.35,9.41-10.69c3.76-2.33,7.3-2.91,10.6-1.73c1.47,0.6,2.67,1.56,3.61,2.87c1.49,2.21,2.2,4.83,2.14,7.86
		c-0.04,2.64-0.56,5.26-1.56,7.85l-0.05,0.1c-0.04,0.12-0.1,0.28-0.18,0.48c-0.08,0.21-0.17,0.41-0.27,0.62
		c1.16-0.13,2.39-0.45,3.7-0.94c1.3-0.49,2.62-1.22,3.95-2.18c0.21-0.18,0.42-0.37,0.64-0.55c0.96-0.83,1.85-1.72,2.68-2.68
		c0.61-0.73,1.2-1.49,1.77-2.27c0.23-0.32,0.47-0.64,0.73-0.96c0.32-0.46,0.65-0.85,1.01-1.17c0.36-0.32,0.79-0.48,1.29-0.48
		c0.33,0,0.61,0,0.84,0c0.22,0,0.5,0,0.84,0C648.78,705.33,648.89,705.41,648.94,705.56 M613.15,726.46c0.72,0.35,1.9,0.08,3.55-0.8
		c1.65-0.88,3.41-2.43,5.27-4.66c-1.4-0.39-2.85-1.12-4.33-2.18c-1.49-1.06-2.86-2.59-4.11-4.59c-0.93,2.98-1.41,5.65-1.44,8
		C612.07,724.59,612.42,726,613.15,726.46 M626.14,700.87c-0.87-0.3-2.14,0.1-3.8,1.21c-1.67,1.11-3.36,2.79-5.09,5.03
		c0.26,1.59,0.96,3.22,2.11,4.91c1.15,1.69,3.04,3.09,5.69,4.2c0.03-0.09,0.08-0.17,0.14-0.24c0.12-0.23,0.23-0.47,0.34-0.72
		c1.42-3.26,2.13-6.34,2.12-9.24C627.64,703.12,627.14,701.4,626.14,700.87"/>
	<path class="st1" d="M660.66,731.5c-1.1,0-2.18-0.22-3.27-0.66c-1.48-0.74-2.59-1.85-3.34-3.32c-1.04-2-1.42-4.09-1.16-6.27
		c0.12-1.01,0.39-1.93,0.8-2.76l4.63-9.35c-3.86,1.67-6.73,2.5-8.61,2.49l-0.67-0.07c-0.61-0.09-0.94-0.17-1-0.24
		c-1.22-0.48-2.05-1.3-2.48-2.45c-0.23-0.62-0.31-1.26-0.23-1.93c0.07-0.55,0.24-1.12,0.53-1.72c0.82-1.67,1.63-3.3,2.43-4.87
		c0.79-1.57,1.37-2.7,1.71-3.39c0.57-1.17,1.41-1.75,2.53-1.75c0.59,0,1.29,0.17,2.08,0.52c2.46,1.22,3.56,2.95,3.29,5.17
		c-0.04,0.32-0.11,0.61-0.21,0.86l-0.12,0.38l-2.09,4.61c3.22-1.12,5.7-1.71,7.41-1.77l0.93-0.03l1.78,0c1.24,0,2.15,0.48,2.75,1.42
		c0.4,0.64,0.55,1.32,0.46,2.03c-0.04,0.37-0.15,0.74-0.32,1.14c-0.03,0.27-0.21,0.67-0.53,1.17l-1.76,3.89
		c-1.32,2.82-2.17,4.69-2.57,5.61c-1.35,2.93-2.1,4.53-2.22,4.78c-0.21,0.37-0.36,0.72-0.45,1.07c-0.01,0.11,0.07,0.17,0.26,0.17
		c0.21,0,0.54-0.06,0.98-0.17c0.79-0.23,1.31-0.42,1.57-0.58c1.9-0.75,4.01-2.18,6.33-4.29c1.76-1.58,6.44-6.72,14.03-15.43
		c0.47-0.5,1.02-0.76,1.66-0.76l3.21,0.01c-2.14,2.54-4.52,5.38-7.15,8.49c-2.62,3.11-5.03,5.93-7.21,8.45
		c-2.18,2.52-3.68,4.17-4.48,4.95c-1.61,1.56-3.58,2.83-5.88,3.81C663.08,731.24,661.87,731.5,660.66,731.5"/>
	<path class="st1" d="M714.82,731.63c-1.09,0-2.18-0.22-3.27-0.66c-1.48-0.74-2.59-1.84-3.34-3.32c-1.04-2-1.42-4.09-1.16-6.27
		c0.12-1.01,0.39-1.93,0.8-2.76l5.44-11.01l5.13-10.21l0.72-1.51c5.2-11.12,9.39-19.86,12.57-26.21c0.42-0.76,1.03-1.13,1.81-1.13
		c0.29,0,0.57,0.06,0.84,0.17c2.26,1.31,3.63,3.02,4.12,5.11c0.06,0.14,0.06,0.37,0.02,0.69c-0.08,0.69-1.09,3.2-3.02,7.53
		c-1.64,3.71-4.11,9.07-7.41,16.06l-2.9,6.26c-1.02,2.11-1.67,3.51-1.97,4.2c-4.08,8.94-6.33,13.84-6.74,14.69
		c-0.33,0.78-0.59,1.32-0.77,1.62c-0.22,0.41-0.34,0.72-0.36,0.93c-0.03,0.25,0.1,0.38,0.38,0.38c0.33,0,0.83-0.11,1.5-0.34
		c2.21-0.8,4.57-2.31,7.07-4.53c1.95-1.74,6.55-6.79,13.82-15.15c0.6-0.66,1.33-1.01,2.19-1.03l1.99,0c0.31,0,0.45,0.14,0.41,0.42
		c-0.02,0.14-2.4,3.02-7.15,8.66c-5.97,7.1-9.71,11.37-11.22,12.82c-1.61,1.56-3.57,2.83-5.88,3.81
		C717.24,731.37,716.03,731.63,714.82,731.63"/>
	<path class="st1" d="M740.6,731.69c-1.11,0-2.22-0.22-3.3-0.66c-1.5-0.74-2.63-1.84-3.38-3.32c-1.02-2-1.39-4.11-1.11-6.34
		c0.12-0.97,0.38-1.86,0.79-2.69l1.47-3.03c3.29-6.74,6.15-12.46,8.58-17.16c0.36-0.78,0.91-1.32,1.66-1.62
		c0.25-0.09,0.53-0.14,0.84-0.14c0.59,0,1.3,0.17,2.11,0.52c2.46,1.25,3.56,2.98,3.29,5.21c-0.04,0.3-0.11,0.57-0.21,0.83
		c-0.1,0.25-1.87,4.13-5.3,11.64c-3.43,7.51-5.15,11.28-5.15,11.28c-0.01,0.11,0.05,0.16,0.19,0.16c0.17,0,0.39-0.03,0.66-0.1
		c2.57-0.64,5.34-2.27,8.29-4.91c2.01-1.83,6.6-6.88,13.79-15.15c0.6-0.66,1.34-1.01,2.23-1.03l1.99,0c0.31,0,0.45,0.14,0.41,0.41
		c-0.02,0.14-2.4,3.02-7.15,8.66c-5.89,6.96-9.62,11.24-11.22,12.82c-1.64,1.56-3.6,2.83-5.88,3.81
		C742.98,731.43,741.79,731.69,740.6,731.69 M756,691.02c-0.26,0-0.54-0.06-0.83-0.18l-4.53-1.73c-0.93-0.37-1.33-1.06-1.21-2.07
		c0.03-0.25,0.1-0.51,0.2-0.76l2.34-4.61c0.36-0.78,0.91-1.31,1.65-1.58c0.27-0.09,0.56-0.14,0.87-0.14c0.59,0,1.28,0.18,2.08,0.52
		c1.74,0.88,2.8,1.97,3.16,3.28c0.17,0.6,0.21,1.23,0.13,1.89c-0.04,0.32-0.11,0.61-0.21,0.86l-0.15,0.38l-1.17,2.58
		c-0.31,0.62-0.77,1.06-1.37,1.31C756.65,690.94,756.33,691.02,756,691.02"/>
	<path class="st1" d="M761.07,752.19c-0.81,0-1.6-0.12-2.38-0.35c-2.02-0.76-3.55-1.92-4.6-3.49l-0.54-0.86
		c-2.15-2.85-2.99-6.14-2.54-9.85c0.17-1.4,0.55-2.7,1.15-3.89l1.51-3.03c3.07-6.31,5.91-12,8.5-17.1
		c3.88-8.21,8.77-18.7,14.67-31.47l5.74-12.35c0.4-0.76,1-1.13,1.81-1.13c0.28,0,0.56,0.06,0.83,0.17c2.26,1.31,3.64,3.02,4.12,5.11
		c0.05,0.14,0.06,0.37,0.02,0.69c-0.05,0.44-0.45,1.56-1.19,3.37c-0.68,1.67-2.28,5.24-4.8,10.7c-1.58,3.44-5.72,12.21-12.4,26.31
		c1.24,0.35,2.48,0.52,3.71,0.53c3.47,0.01,6.82-1.18,10.06-3.55c0.49-0.35,1.16-0.88,2.01-1.61c0.63-0.48,0.98-0.82,1.05-1.03
		l0.05-0.07c0.55-0.6,1.07-1.19,1.57-1.79l0.04-0.03c0.25-0.3,0.51-0.59,0.78-0.86c0.66-0.9,1.48-1.34,2.48-1.34l1.96,0.01
		c0.31,0,0.45,0.14,0.41,0.41c-0.01,0.09-0.05,0.19-0.1,0.28l-1.68,2.06c-1.27,1.67-2.7,3.36-4.29,5.06
		c-1.59,1.58-3.25,2.83-4.98,3.74c-3.66,1.92-7.09,3.07-10.29,3.45c2.42,3.18,3.52,6.71,3.3,10.61c-0.03,0.64-0.09,1.28-0.16,1.89
		c-0.39,3.24-1.47,6.46-3.23,9.67c-1.76,3.21-4.01,5.77-6.76,7.7C764.94,751.51,763,752.2,761.07,752.19 M760.13,742.1l0.11-0.03
		c5.92-0.65,9.31-4.44,10.15-11.37c0.2-1.67,0.23-3.35,0.08-5.03c-0.15-1.67-0.85-3.27-2.09-4.79l-8.65,20.06l-0.09,0.21
		c-0.06,0.11-0.11,0.32-0.15,0.62c-0.02,0.12,0.01,0.2,0.08,0.26C759.63,742.07,759.82,742.1,760.13,742.1"/>
	<path class="st1" d="M795.83,731.79c-2.04-0.01-3.69-0.35-4.94-1.04c-1.38-0.78-2.55-1.81-3.51-3.07l-0.49-0.66
		c-0.86-1.54-1.16-3.39-0.89-5.55c0.3-2.43,1.17-5.15,2.63-8.15c2.84-6.33,5.98-10.92,9.41-13.78c2.01-1.69,4.21-2.54,6.61-2.53
		c1.28,0,2.63,0.29,4.03,0.87c1.4,0.58,2.7,1.48,3.87,2.73c1.3,1.38,1.96,2.93,1.96,4.65c-0.01,0.48-0.05,0.96-0.11,1.45
		c-0.15,1.26-0.58,2.65-1.29,4.16c-2.61,5.64-6.32,8.45-11.12,8.45c-1.4,0-2.85-0.25-4.36-0.73c-2.01-0.67-3.01-1.08-2.99-1.21
		l-0.09,0.17c-0.46,0.83-0.84,1.8-1.14,2.92l-0.21,1.14c-0.17,1.42,0.11,2.48,0.86,3.17c0.27,0.37,0.78,0.63,1.54,0.8
		c1.02,0.23,1.99,0.35,2.92,0.35c2-0.06,3.81-0.43,5.41-1.09c2.7-1.12,4.78-2.48,6.23-4.08c2.38-2.38,6.75-7.22,13.1-14.51
		c0.6-0.66,1.33-1,2.19-1.03l2,0c0.31,0,0.45,0.14,0.41,0.42c-0.01,0.09-0.05,0.18-0.1,0.27l-1.21,1.44
		c-6.54,7.81-10.8,12.8-12.8,14.95c-3.98,4.22-8.08,7.09-12.28,8.62C799.6,731.5,797.71,731.79,795.83,731.79 M800.36,715.72
		c0.33,0,0.94-0.07,1.82-0.2c0.88-0.14,1.75-0.59,2.61-1.35c0.85-0.77,1.48-1.52,1.88-2.25c0.74-1.63,1.3-2.98,1.67-4.06l0.59-1.65
		c0.07-0.34,0.11-0.65,0.15-0.93c0.09-0.69,0.03-1.28-0.18-1.76c-0.28-0.62-0.73-0.93-1.35-0.93c-0.17,0-0.4,0.03-0.69,0.1
		c-1.12,0.27-2.18,0.75-3.17,1.44c-2.75,2.06-5.22,5.29-7.42,9.69c-0.13,0.3-0.27,0.58-0.42,0.86
		C797.57,715.37,799.07,715.71,800.36,715.72"/>
	<polygon class="st2" points="262.47,185.12 288.62,165.02 346.23,208.74 346.48,208.55 303.96,153.22 325.84,136.41 394.84,226.19 
		369.19,245.9 310.98,202.44 310.73,202.63 353.35,258.08 331.47,274.9 	"/>
	<path class="st2" d="M371.9,111.47l33.75-15.43l72.19,91.49l-28.55,13.06l-10.99-16.77l-21.34,9.76l5.51,19.28l-28.55,13.06
		L371.9,111.47z M398.55,124.74l-0.29,0.13l12.63,47.06l15-6.86L398.55,124.74z"/>
	<path class="st2" d="M505.4,102.18c-2.7-12.56-5.83-15.78-11.41-14.58c-8.84,1.9-8.03,10.16-1.6,40.09
		c6.44,29.92,9.1,37.78,17.94,35.89c7.13-1.54,7.35-8.07,2.85-29l27.91-6l1.77,8.22c6.67,31.01-9.87,42.35-28.32,46.32
		c-32.4,6.97-43.04-7.78-51.91-49.02c-9.11-42.33-2.76-59.59,27.16-66.02c26.05-5.6,38.75,5.94,43.35,27.34l1.5,6.98l-27.91,6
		L505.4,102.18z"/>
	<path class="st2" d="M594.53,57.43c30.13,0.49,40.16,17.15,39.47,59.48c-0.69,42.34-11.26,58.66-41.39,58.17
		c-30.13-0.49-40.16-17.15-39.47-59.48C553.83,73.27,564.4,56.94,594.53,57.43 M592.94,155.11c9.04,0.15,10.12-8.08,10.62-38.68
		c0.5-30.6-0.32-38.86-9.36-39.01c-9.04-0.15-10.12,8.08-10.62,38.68C583.09,146.7,583.9,154.96,592.94,155.11"/>
	<path class="st2" d="M662.01,63.22l43.21,9.55c21.99,4.86,28.65,21.76,24.37,41.12c-5,22.61-20.45,31.54-43.84,26.37l-10.07-2.23
		l-9.31,42.12l-28.8-6.37L662.01,63.22z M680.27,117.29l5.42,1.2c7.28,1.61,12.07-1.71,14.13-11.01c2.02-9.14-0.89-14.33-8.17-15.94
		l-5.42-1.2L680.27,117.29z"/>
	<polygon class="st2" points="764.35,89.29 791.06,101.81 773.43,139.43 789.8,147.1 807.43,109.48 834.14,121.99 786.1,224.52 
		759.39,212.01 779.17,169.79 762.8,162.12 743.02,204.34 716.31,191.82 	"/>
	<path class="st2" d="M877.36,151.08l29.29,22.78l-47.74,106.32l-24.79-19.28l9.79-17.5L825.39,229l-14.55,13.8l-24.79-19.28
		L877.36,151.08z M877.91,180.85l-0.25-0.19l-35.89,32.96l13.02,10.13L877.91,180.85z"/>
	<path d="M375.73,417.08c18.45,0.51,33.63-13.83,34.13-32.07c0.51-18.23-13.85-33.4-32.3-33.91c-18.23-0.51-33.41,13.84-33.91,32.07
		C343.14,401.41,357.5,416.58,375.73,417.08"/>
	<path class="st3" d="M448.29,644.13c-28.11-19.41-48.1-49.55-54.05-84.37l-61.55-29.18C358.67,579.13,399.02,618.98,448.29,644.13"
		/>
	<path class="st4" d="M399.95,493.92l-94.79-42.39c2.94,16.26,7.32,32.03,13.04,47.16l74.33,34.18
		C393.05,519.46,395.49,506.11,399.95,493.92"/>
	<path class="st5" d="M410.83,472.51l-109.26-49.42c0.7,9.62,1.91,19.11,3.59,28.44l94.79,42.39
		C402.77,486.23,406.38,478.99,410.83,472.51"/>
	<path class="st5" d="M392.53,532.87l-74.33-34.18c4.15,10.99,9,21.63,14.49,31.89l61.55,29.18c-1.4-8.21-2.03-16.69-1.79-25.35
		C392.47,533.9,392.51,533.38,392.53,532.87"/>
	<path class="st6" d="M471.73,441.69c8.25,0.23,16.25,1.75,23.56,4.56c-56-41.31-84.66-10.61-124.17-11.7
		c-65.36-1.82-50.56-120-39.53-157.05c-18.57,35.32-29.47,75.43-30.66,118.18c-0.26,9.24-0.01,18.38,0.64,27.41l109.26,49.42
		C423.84,453.54,443.92,440.92,471.73,441.69"/>
	<path d="M812.85,422.32c-18.45,0.51-33.63-13.83-34.14-32.07c-0.51-18.23,13.85-33.4,32.3-33.91
		c18.23-0.51,33.41,13.84,33.91,32.07C845.44,406.64,831.09,421.81,812.85,422.32"/>
	<path class="st3" d="M740.29,649.36c28.11-19.41,48.1-49.54,54.05-84.37l61.55-29.18C829.92,584.37,789.56,624.21,740.29,649.36"/>
	<path class="st4" d="M788.63,499.15l94.79-42.39c-2.94,16.26-7.32,32.03-13.04,47.16l-74.33,34.18
		C795.54,524.7,793.09,511.35,788.63,499.15"/>
	<path class="st5" d="M777.75,477.74l109.26-49.42c-0.7,9.62-1.91,19.11-3.59,28.44l-94.79,42.39
		C785.82,491.46,782.2,484.23,777.75,477.74"/>
	<path class="st5" d="M796.06,538.1l74.33-34.18c-4.15,10.99-9,21.63-14.49,31.89l-61.55,29.18c1.4-8.21,2.03-16.69,1.79-25.35
		C796.11,539.13,796.08,538.61,796.06,538.1"/>
	<path class="st6" d="M716.85,446.93c-8.25,0.23-16.25,1.76-23.56,4.56c56-41.3,84.66-10.61,124.17-11.7
		c65.36-1.82,50.56-120,39.53-157.06c18.57,35.32,29.47,75.43,30.66,118.18c0.26,9.24,0.01,18.38-0.64,27.41l-109.26,49.42
		C764.74,458.77,744.66,446.15,716.85,446.93"/>
	<rect class="st7" width="1190.55" height="841.89"/>
</g>
<g>
	<path class="st2" d="M680.79,670.42l34.88-70.73c0,0-41.06-67.83-83.84-141.99l0.01-0.01l-35.98-63.36l-0.01,0.02
		c-26.61-47.73-49.14-90.67-56.51-111.47c-45.05,27.13-34.39,65.88-31,79.45c1.21,4.83,23.42,45.28,51.52,95.37l-0.01,0.02l36,63.77
		l0-0.01C638.53,596.8,680.79,670.42,680.79,670.42"/>
	<path class="st2" d="M558.45,460.12c-42.12,72.92-82.02,138.85-82.02,138.85l34.88,70.73c0,0,40.93-71.31,82.92-145.36l-35.8-64.16
		L558.45,460.12z"/>
	<path class="st2" d="M683.77,361.6c3.39-13.56,14.05-52.32-31-79.45c-7.27,20.51-29.28,62.55-55.41,109.49l35.88,63.56
		C660.87,405.93,682.57,366.37,683.77,361.6"/>
	<path class="st2" d="M598.55,266.65c65.03,0,82.47,35.24,89.74,54.86c-5.09-28.7-18.89-56.8-21.72-62.89
		c-8.32-18.38-24.79-42.84-71.29-42.84c-57.77,0-73.63,48.56-80.17,64.91c-6.54,16.35-12.84,44.45-12.84,44.45
		C512.45,298.98,530.61,266.65,598.55,266.65"/>
</g>
</svg>
