<?xml version="1.0" encoding="utf-8"?>
<!-- Generator: Adobe Illustrator 25.1.0, SVG Export Plug-In . SVG Version: 6.00 Build 0)  -->
<svg version="1.1" id="Layer_1" xmlns="http://www.w3.org/2000/svg" xmlns:xlink="http://www.w3.org/1999/xlink" x="0px" y="0px"
	 viewBox="0 0 745.1 768.88" style="enable-background:new 0 0 745.1 768.88;" xml:space="preserve">
<style type="text/css">
	.st0{fill-rule:evenodd;clip-rule:evenodd;fill:#FFFFFF;}
	.st1{fill:#FFFFFF;}
	.st2{fill:#159ED9;}
	.st3{fill:#221F1F;}
	.st4{fill:#FCD502;}
	.st5{fill:#33B04B;}
	.st6{fill:none;}
	.st7{fill:#E8262A;}
</style>
<polygon class="st0" points="69.67,706.36 69.67,597.88 139.82,556.04 18.58,556.04 54.73,631.19 18.58,706.36 "/>
<path class="st0" d="M307.98,671.2c-0.28-0.62-0.73-0.93-1.35-0.94c-0.16,0-0.39,0.04-0.69,0.11c-1.12,0.27-2.18,0.75-3.17,1.44
	c-2.74,2.05-5.21,5.28-7.41,9.69c-0.13,0.3-0.28,0.58-0.43,0.86c1.72,0.69,3.22,1.04,4.51,1.04c0.33,0,0.94-0.06,1.82-0.2
	c0.89-0.13,1.75-0.58,2.61-1.35c0.85-0.77,1.48-1.52,1.88-2.26c0.74-1.62,1.3-2.98,1.67-4.05l0.59-1.66
	c0.06-0.34,0.11-0.65,0.15-0.92C308.24,672.27,308.18,671.68,307.98,671.2z M307.98,671.2c-0.28-0.62-0.73-0.93-1.35-0.94
	c-0.16,0-0.39,0.04-0.69,0.11c-1.12,0.27-2.18,0.75-3.17,1.44c-2.74,2.05-5.21,5.28-7.41,9.69c-0.13,0.3-0.28,0.58-0.43,0.86
	c1.72,0.69,3.22,1.04,4.51,1.04c0.33,0,0.94-0.06,1.82-0.2c0.89-0.13,1.75-0.58,2.61-1.35c0.85-0.77,1.48-1.52,1.88-2.26
	c0.74-1.62,1.3-2.98,1.67-4.05l0.59-1.66c0.06-0.34,0.11-0.65,0.15-0.92C308.24,672.27,308.18,671.68,307.98,671.2z M307.98,671.2
	c-0.28-0.62-0.73-0.93-1.35-0.94c-0.16,0-0.39,0.04-0.69,0.11c-1.12,0.27-2.18,0.75-3.17,1.44c-2.74,2.05-5.21,5.28-7.41,9.69
	c-0.13,0.3-0.28,0.58-0.43,0.86c1.72,0.69,3.22,1.04,4.51,1.04c0.33,0,0.94-0.06,1.82-0.2c0.89-0.13,1.75-0.58,2.61-1.35
	c0.85-0.77,1.48-1.52,1.88-2.26c0.74-1.62,1.3-2.98,1.67-4.05l0.59-1.66c0.06-0.34,0.11-0.65,0.15-0.92
	C308.24,672.27,308.18,671.68,307.98,671.2z M368.26,693.59c-0.15-1.68-0.84-3.27-2.09-4.79l-8.64,20.05l-0.1,0.21
	c-0.06,0.11-0.11,0.32-0.14,0.62c-0.02,0.11,0.01,0.2,0.07,0.26c0.07,0.06,0.25,0.08,0.56,0.09l0.11-0.04
	c5.93-0.65,9.31-4.44,10.15-11.37C368.39,696.94,368.42,695.27,368.26,693.59z M368.26,693.59c-0.15-1.68-0.84-3.27-2.09-4.79
	l-8.64,20.05l-0.1,0.21c-0.06,0.11-0.11,0.32-0.14,0.62c-0.02,0.11,0.01,0.2,0.07,0.26c0.07,0.06,0.25,0.08,0.56,0.09l0.11-0.04
	c5.93-0.65,9.31-4.44,10.15-11.37C368.39,696.94,368.42,695.27,368.26,693.59z M307.98,671.2c-0.28-0.62-0.73-0.93-1.35-0.94
	c-0.16,0-0.39,0.04-0.69,0.11c-1.12,0.27-2.18,0.75-3.17,1.44c-2.74,2.05-5.21,5.28-7.41,9.69c-0.13,0.3-0.28,0.58-0.43,0.86
	c1.72,0.69,3.22,1.04,4.51,1.04c0.33,0,0.94-0.06,1.82-0.2c0.89-0.13,1.75-0.58,2.61-1.35c0.85-0.77,1.48-1.52,1.88-2.26
	c0.74-1.62,1.3-2.98,1.67-4.05l0.59-1.66c0.06-0.34,0.11-0.65,0.15-0.92C308.24,672.27,308.18,671.68,307.98,671.2z M307.98,671.2
	c-0.28-0.62-0.73-0.93-1.35-0.94c-0.16,0-0.39,0.04-0.69,0.11c-1.12,0.27-2.18,0.75-3.17,1.44c-2.74,2.05-5.21,5.28-7.41,9.69
	c-0.13,0.3-0.28,0.58-0.43,0.86c1.72,0.69,3.22,1.04,4.51,1.04c0.33,0,0.94-0.06,1.82-0.2c0.89-0.13,1.75-0.58,2.61-1.35
	c0.85-0.77,1.48-1.52,1.88-2.26c0.74-1.62,1.3-2.98,1.67-4.05l0.59-1.66c0.06-0.34,0.11-0.65,0.15-0.92
	C308.24,672.27,308.18,671.68,307.98,671.2z M368.26,693.59c-0.15-1.68-0.84-3.27-2.09-4.79l-8.64,20.05l-0.1,0.21
	c-0.06,0.11-0.11,0.32-0.14,0.62c-0.02,0.11,0.01,0.2,0.07,0.26c0.07,0.06,0.25,0.08,0.56,0.09l0.11-0.04
	c5.93-0.65,9.31-4.44,10.15-11.37C368.39,696.94,368.42,695.27,368.26,693.59z M397.04,687.18c-1.49-1.06-2.86-2.58-4.11-4.58
	c-0.93,2.98-1.41,5.64-1.44,8c-0.02,2.35,0.33,3.76,1.06,4.22c0.71,0.35,1.9,0.08,3.55-0.8c1.65-0.88,3.41-2.43,5.27-4.66
	C399.97,688.97,398.52,688.25,397.04,687.18z M405.54,669.23c-0.87-0.3-2.14,0.1-3.81,1.21c-1.66,1.11-3.36,2.79-5.08,5.03
	c0.26,1.59,0.96,3.23,2.11,4.92c1.15,1.69,3.04,3.08,5.69,4.19c0.03-0.09,0.08-0.17,0.14-0.24c0.12-0.22,0.23-0.46,0.33-0.72
	c1.42-3.25,2.13-6.33,2.13-9.24C407.04,671.48,406.54,669.76,405.54,669.23z M405.54,669.23c-0.87-0.3-2.14,0.1-3.81,1.21
	c-1.66,1.11-3.36,2.79-5.08,5.03c0.26,1.59,0.96,3.23,2.11,4.92c1.15,1.69,3.04,3.08,5.69,4.19c0.03-0.09,0.08-0.17,0.14-0.24
	c0.12-0.22,0.23-0.46,0.33-0.72c1.42-3.25,2.13-6.33,2.13-9.24C407.04,671.48,406.54,669.76,405.54,669.23z M397.04,687.18
	c-1.49-1.06-2.86-2.58-4.11-4.58c-0.93,2.98-1.41,5.64-1.44,8c-0.02,2.35,0.33,3.76,1.06,4.22c0.71,0.35,1.9,0.08,3.55-0.8
	c1.65-0.88,3.41-2.43,5.27-4.66C399.97,688.97,398.52,688.25,397.04,687.18z M368.26,693.59c-0.15-1.68-0.84-3.27-2.09-4.79
	l-8.64,20.05l-0.1,0.21c-0.06,0.11-0.11,0.32-0.14,0.62c-0.02,0.11,0.01,0.2,0.07,0.26c0.07,0.06,0.25,0.08,0.56,0.09l0.11-0.04
	c5.93-0.65,9.31-4.44,10.15-11.37C368.39,696.94,368.42,695.27,368.26,693.59z M307.98,671.2c-0.28-0.62-0.73-0.93-1.35-0.94
	c-0.16,0-0.39,0.04-0.69,0.11c-1.12,0.27-2.18,0.75-3.17,1.44c-2.74,2.05-5.21,5.28-7.41,9.69c-0.13,0.3-0.28,0.58-0.43,0.86
	c1.72,0.69,3.22,1.04,4.51,1.04c0.33,0,0.94-0.06,1.82-0.2c0.89-0.13,1.75-0.58,2.61-1.35c0.85-0.77,1.48-1.52,1.88-2.26
	c0.74-1.62,1.3-2.98,1.67-4.05l0.59-1.66c0.06-0.34,0.11-0.65,0.15-0.92C308.24,672.27,308.18,671.68,307.98,671.2z M307.98,671.2
	c-0.28-0.62-0.73-0.93-1.35-0.94c-0.16,0-0.39,0.04-0.69,0.11c-1.12,0.27-2.18,0.75-3.17,1.44c-2.74,2.05-5.21,5.28-7.41,9.69
	c-0.13,0.3-0.28,0.58-0.43,0.86c1.72,0.69,3.22,1.04,4.51,1.04c0.33,0,0.94-0.06,1.82-0.2c0.89-0.13,1.75-0.58,2.61-1.35
	c0.85-0.77,1.48-1.52,1.88-2.26c0.74-1.62,1.3-2.98,1.67-4.05l0.59-1.66c0.06-0.34,0.11-0.65,0.15-0.92
	C308.24,672.27,308.18,671.68,307.98,671.2z M368.26,693.59c-0.15-1.68-0.84-3.27-2.09-4.79l-8.64,20.05l-0.1,0.21
	c-0.06,0.11-0.11,0.32-0.14,0.62c-0.02,0.11,0.01,0.2,0.07,0.26c0.07,0.06,0.25,0.08,0.56,0.09l0.11-0.04
	c5.93-0.65,9.31-4.44,10.15-11.37C368.39,696.94,368.42,695.27,368.26,693.59z M397.04,687.18c-1.49-1.06-2.86-2.58-4.11-4.58
	c-0.93,2.98-1.41,5.64-1.44,8c-0.02,2.35,0.33,3.76,1.06,4.22c0.71,0.35,1.9,0.08,3.55-0.8c1.65-0.88,3.41-2.43,5.27-4.66
	C399.97,688.97,398.52,688.25,397.04,687.18z M405.54,669.23c-0.87-0.3-2.14,0.1-3.81,1.21c-1.66,1.11-3.36,2.79-5.08,5.03
	c0.26,1.59,0.96,3.23,2.11,4.92c1.15,1.69,3.04,3.08,5.69,4.19c0.03-0.09,0.08-0.17,0.14-0.24c0.12-0.22,0.23-0.46,0.33-0.72
	c1.42-3.25,2.13-6.33,2.13-9.24C407.04,671.48,406.54,669.76,405.54,669.23z M405.54,669.23c-0.87-0.3-2.14,0.1-3.81,1.21
	c-1.66,1.11-3.36,2.79-5.08,5.03c0.26,1.59,0.96,3.23,2.11,4.92c1.15,1.69,3.04,3.08,5.69,4.19c0.03-0.09,0.08-0.17,0.14-0.24
	c0.12-0.22,0.23-0.46,0.33-0.72c1.42-3.25,2.13-6.33,2.13-9.24C407.04,671.48,406.54,669.76,405.54,669.23z M397.04,687.18
	c-1.49-1.06-2.86-2.58-4.11-4.58c-0.93,2.98-1.41,5.64-1.44,8c-0.02,2.35,0.33,3.76,1.06,4.22c0.71,0.35,1.9,0.08,3.55-0.8
	c1.65-0.88,3.41-2.43,5.27-4.66C399.97,688.97,398.52,688.25,397.04,687.18z M368.26,693.59c-0.15-1.68-0.84-3.27-2.09-4.79
	l-8.64,20.05l-0.1,0.21c-0.06,0.11-0.11,0.32-0.14,0.62c-0.02,0.11,0.01,0.2,0.07,0.26c0.07,0.06,0.25,0.08,0.56,0.09l0.11-0.04
	c5.93-0.65,9.31-4.44,10.15-11.37C368.39,696.94,368.42,695.27,368.26,693.59z M307.98,671.2c-0.28-0.62-0.73-0.93-1.35-0.94
	c-0.16,0-0.39,0.04-0.69,0.11c-1.12,0.27-2.18,0.75-3.17,1.44c-2.74,2.05-5.21,5.28-7.41,9.69c-0.13,0.3-0.28,0.58-0.43,0.86
	c1.72,0.69,3.22,1.04,4.51,1.04c0.33,0,0.94-0.06,1.82-0.2c0.89-0.13,1.75-0.58,2.61-1.35c0.85-0.77,1.48-1.52,1.88-2.26
	c0.74-1.62,1.3-2.98,1.67-4.05l0.59-1.66c0.06-0.34,0.11-0.65,0.15-0.92C308.24,672.27,308.18,671.68,307.98,671.2z M307.98,671.2
	c-0.28-0.62-0.73-0.93-1.35-0.94c-0.16,0-0.39,0.04-0.69,0.11c-1.12,0.27-2.18,0.75-3.17,1.44c-2.74,2.05-5.21,5.28-7.41,9.69
	c-0.13,0.3-0.28,0.58-0.43,0.86c1.72,0.69,3.22,1.04,4.51,1.04c0.33,0,0.94-0.06,1.82-0.2c0.89-0.13,1.75-0.58,2.61-1.35
	c0.85-0.77,1.48-1.52,1.88-2.26c0.74-1.62,1.3-2.98,1.67-4.05l0.59-1.66c0.06-0.34,0.11-0.65,0.15-0.92
	C308.24,672.27,308.18,671.68,307.98,671.2z M368.26,693.59c-0.15-1.68-0.84-3.27-2.09-4.79l-8.64,20.05l-0.1,0.21
	c-0.06,0.11-0.11,0.32-0.14,0.62c-0.02,0.11,0.01,0.2,0.07,0.26c0.07,0.06,0.25,0.08,0.56,0.09l0.11-0.04
	c5.93-0.65,9.31-4.44,10.15-11.37C368.39,696.94,368.42,695.27,368.26,693.59z M397.04,687.18c-1.49-1.06-2.86-2.58-4.11-4.58
	c-0.93,2.98-1.41,5.64-1.44,8c-0.02,2.35,0.33,3.76,1.06,4.22c0.71,0.35,1.9,0.08,3.55-0.8c1.65-0.88,3.41-2.43,5.27-4.66
	C399.97,688.97,398.52,688.25,397.04,687.18z M405.54,669.23c-0.87-0.3-2.14,0.1-3.81,1.21c-1.66,1.11-3.36,2.79-5.08,5.03
	c0.26,1.59,0.96,3.23,2.11,4.92c1.15,1.69,3.04,3.08,5.69,4.19c0.03-0.09,0.08-0.17,0.14-0.24c0.12-0.22,0.23-0.46,0.33-0.72
	c1.42-3.25,2.13-6.33,2.13-9.24C407.04,671.48,406.54,669.76,405.54,669.23z M549.87,694.02c-0.15-1.67-0.85-3.27-2.09-4.79
	l-8.64,20.06l-0.1,0.2c-0.06,0.12-0.11,0.33-0.15,0.62c-0.01,0.12,0.02,0.2,0.08,0.26s0.25,0.09,0.56,0.09l0.11-0.03
	c5.92-0.66,9.31-4.45,10.15-11.38C549.99,697.38,550.02,695.7,549.87,694.02z M549.87,694.02c-0.15-1.67-0.85-3.27-2.09-4.79
	l-8.64,20.06l-0.1,0.2c-0.06,0.12-0.11,0.33-0.15,0.62c-0.01,0.12,0.02,0.2,0.08,0.26s0.25,0.09,0.56,0.09l0.11-0.03
	c5.92-0.66,9.31-4.45,10.15-11.38C549.99,697.38,550.02,695.7,549.87,694.02z M405.54,669.23c-0.87-0.3-2.14,0.1-3.81,1.21
	c-1.66,1.11-3.36,2.79-5.08,5.03c0.26,1.59,0.96,3.23,2.11,4.92c1.15,1.69,3.04,3.08,5.69,4.19c0.03-0.09,0.08-0.17,0.14-0.24
	c0.12-0.22,0.23-0.46,0.33-0.72c1.42-3.25,2.13-6.33,2.13-9.24C407.04,671.48,406.54,669.76,405.54,669.23z M397.04,687.18
	c-1.49-1.06-2.86-2.58-4.11-4.58c-0.93,2.98-1.41,5.64-1.44,8c-0.02,2.35,0.33,3.76,1.06,4.22c0.71,0.35,1.9,0.08,3.55-0.8
	c1.65-0.88,3.41-2.43,5.27-4.66C399.97,688.97,398.52,688.25,397.04,687.18z M368.26,693.59c-0.15-1.68-0.84-3.27-2.09-4.79
	l-8.64,20.05l-0.1,0.21c-0.06,0.11-0.11,0.32-0.14,0.62c-0.02,0.11,0.01,0.2,0.07,0.26c0.07,0.06,0.25,0.08,0.56,0.09l0.11-0.04
	c5.93-0.65,9.31-4.44,10.15-11.37C368.39,696.94,368.42,695.27,368.26,693.59z M307.98,671.2c-0.28-0.62-0.73-0.93-1.35-0.94
	c-0.16,0-0.39,0.04-0.69,0.11c-1.12,0.27-2.18,0.75-3.17,1.44c-2.74,2.05-5.21,5.28-7.41,9.69c-0.13,0.3-0.28,0.58-0.43,0.86
	c1.72,0.69,3.22,1.04,4.51,1.04c0.33,0,0.94-0.06,1.82-0.2c0.89-0.13,1.75-0.58,2.61-1.35c0.85-0.77,1.48-1.52,1.88-2.26
	c0.74-1.62,1.3-2.98,1.67-4.05l0.59-1.66c0.06-0.34,0.11-0.65,0.15-0.92C308.24,672.27,308.18,671.68,307.98,671.2z M204.28,686.72
	c-1.49-1.06-2.85-2.59-4.11-4.59c-0.93,2.98-1.41,5.65-1.43,8c-0.03,2.36,0.32,3.76,1.05,4.22c0.72,0.35,1.9,0.09,3.55-0.79
	c1.65-0.89,3.41-2.44,5.27-4.66C207.21,688.51,205.77,687.78,204.28,686.72z M212.78,668.77c-0.87-0.3-2.14,0.1-3.8,1.21
	c-1.67,1.11-3.37,2.79-5.09,5.03c0.26,1.59,0.96,3.22,2.11,4.91c1.15,1.7,3.05,3.09,5.69,4.2c0.03-0.09,0.08-0.17,0.14-0.24
	c0.12-0.23,0.23-0.47,0.33-0.72c1.42-3.26,2.13-6.34,2.13-9.24C214.29,671.01,213.78,669.3,212.78,668.77z M307.98,671.2
	c-0.28-0.62-0.73-0.93-1.35-0.94c-0.16,0-0.39,0.04-0.69,0.11c-1.12,0.27-2.18,0.75-3.17,1.44c-2.74,2.05-5.21,5.28-7.41,9.69
	c-0.13,0.3-0.28,0.58-0.43,0.86c1.72,0.69,3.22,1.04,4.51,1.04c0.33,0,0.94-0.06,1.82-0.2c0.89-0.13,1.75-0.58,2.61-1.35
	c0.85-0.77,1.48-1.52,1.88-2.26c0.74-1.62,1.3-2.98,1.67-4.05l0.59-1.66c0.06-0.34,0.11-0.65,0.15-0.92
	C308.24,672.27,308.18,671.68,307.98,671.2z M368.26,693.59c-0.15-1.68-0.84-3.27-2.09-4.79l-8.64,20.05l-0.1,0.21
	c-0.06,0.11-0.11,0.32-0.14,0.62c-0.02,0.11,0.01,0.2,0.07,0.26c0.07,0.06,0.25,0.08,0.56,0.09l0.11-0.04
	c5.93-0.65,9.31-4.44,10.15-11.37C368.39,696.94,368.42,695.27,368.26,693.59z M397.04,687.18c-1.49-1.06-2.86-2.58-4.11-4.58
	c-0.93,2.98-1.41,5.64-1.44,8c-0.02,2.35,0.33,3.76,1.06,4.22c0.71,0.35,1.9,0.08,3.55-0.8c1.65-0.88,3.41-2.43,5.27-4.66
	C399.97,688.97,398.52,688.25,397.04,687.18z M405.54,669.23c-0.87-0.3-2.14,0.1-3.81,1.21c-1.66,1.11-3.36,2.79-5.08,5.03
	c0.26,1.59,0.96,3.23,2.11,4.92c1.15,1.69,3.04,3.08,5.69,4.19c0.03-0.09,0.08-0.17,0.14-0.24c0.12-0.22,0.23-0.46,0.33-0.72
	c1.42-3.25,2.13-6.33,2.13-9.24C407.04,671.48,406.54,669.76,405.54,669.23z M549.87,694.02c-0.15-1.67-0.85-3.27-2.09-4.79
	l-8.64,20.06l-0.1,0.2c-0.06,0.12-0.11,0.33-0.15,0.62c-0.01,0.12,0.02,0.2,0.08,0.26s0.25,0.09,0.56,0.09l0.11-0.03
	c5.92-0.66,9.31-4.45,10.15-11.38C549.99,697.38,550.02,695.7,549.87,694.02z M588.3,671.87c-0.28-0.62-0.73-0.93-1.35-0.93
	c-0.16,0-0.39,0.03-0.69,0.1c-1.12,0.27-2.18,0.75-3.17,1.44c-2.74,2.06-5.21,5.29-7.41,9.69c-0.14,0.3-0.28,0.59-0.43,0.86
	c1.72,0.7,3.22,1.04,4.51,1.05c0.33,0,0.94-0.07,1.82-0.21c0.88-0.13,1.75-0.58,2.61-1.35c0.85-0.77,1.48-1.52,1.87-2.25
	c0.75-1.63,1.31-2.98,1.68-4.06l0.59-1.65c0.06-0.35,0.11-0.66,0.15-0.93C588.56,672.94,588.5,672.35,588.3,671.87z M588.3,671.87
	c-0.28-0.62-0.73-0.93-1.35-0.93c-0.16,0-0.39,0.03-0.69,0.1c-1.12,0.27-2.18,0.75-3.17,1.44c-2.74,2.06-5.21,5.29-7.41,9.69
	c-0.14,0.3-0.28,0.59-0.43,0.86c1.72,0.7,3.22,1.04,4.51,1.05c0.33,0,0.94-0.07,1.82-0.21c0.88-0.13,1.75-0.58,2.61-1.35
	c0.85-0.77,1.48-1.52,1.87-2.25c0.75-1.63,1.31-2.98,1.68-4.06l0.59-1.65c0.06-0.35,0.11-0.66,0.15-0.93
	C588.56,672.94,588.5,672.35,588.3,671.87z M547.78,689.23l-8.64,20.06l-0.1,0.2c-0.06,0.12-0.11,0.33-0.15,0.62
	c-0.01,0.12,0.02,0.2,0.08,0.26s0.25,0.09,0.56,0.09l0.11-0.03c5.92-0.66,9.31-4.45,10.15-11.38c0.2-1.67,0.23-3.35,0.08-5.03
	C549.72,692.35,549.02,690.75,547.78,689.23z M405.54,669.23c-0.87-0.3-2.14,0.1-3.81,1.21c-1.66,1.11-3.36,2.79-5.08,5.03
	c0.26,1.59,0.96,3.23,2.11,4.92c1.15,1.69,3.04,3.08,5.69,4.19c0.03-0.09,0.08-0.17,0.14-0.24c0.12-0.22,0.23-0.46,0.33-0.72
	c1.42-3.25,2.13-6.33,2.13-9.24C407.04,671.48,406.54,669.76,405.54,669.23z M392.93,682.6c-0.93,2.98-1.41,5.64-1.44,8
	c-0.02,2.35,0.33,3.76,1.06,4.22c0.71,0.35,1.9,0.08,3.55-0.8c1.65-0.88,3.41-2.43,5.27-4.66c-1.4-0.39-2.85-1.11-4.33-2.18
	C395.55,686.12,394.18,684.6,392.93,682.6z M366.17,688.8l-8.64,20.05l-0.1,0.21c-0.06,0.11-0.11,0.32-0.14,0.62
	c-0.02,0.11,0.01,0.2,0.07,0.26c0.07,0.06,0.25,0.08,0.56,0.09l0.11-0.04c5.93-0.65,9.31-4.44,10.15-11.37
	c0.21-1.68,0.24-3.35,0.08-5.03C368.11,691.91,367.42,690.32,366.17,688.8z M307.98,671.2c-0.28-0.62-0.73-0.93-1.35-0.94
	c-0.16,0-0.39,0.04-0.69,0.11c-1.12,0.27-2.18,0.75-3.17,1.44c-2.74,2.05-5.21,5.28-7.41,9.69c-0.13,0.3-0.28,0.58-0.43,0.86
	c1.72,0.69,3.22,1.04,4.51,1.04c0.33,0,0.94-0.06,1.82-0.2c0.89-0.13,1.75-0.58,2.61-1.35c0.85-0.77,1.48-1.52,1.88-2.26
	c0.74-1.62,1.3-2.98,1.67-4.05l0.59-1.66c0.06-0.34,0.11-0.65,0.15-0.92C308.24,672.27,308.18,671.68,307.98,671.2z M212.78,668.77
	c-0.87-0.3-2.14,0.1-3.8,1.21c-1.67,1.11-3.37,2.79-5.09,5.03c0.26,1.59,0.96,3.22,2.11,4.91c1.15,1.7,3.05,3.09,5.69,4.2
	c0.03-0.09,0.08-0.17,0.14-0.24c0.12-0.23,0.23-0.47,0.33-0.72c1.42-3.26,2.13-6.34,2.13-9.24
	C214.29,671.01,213.78,669.3,212.78,668.77z M200.17,682.13c-0.93,2.98-1.41,5.65-1.43,8c-0.03,2.36,0.32,3.76,1.05,4.22
	c0.72,0.35,1.9,0.09,3.55-0.79c1.65-0.89,3.41-2.44,5.27-4.66c-1.4-0.39-2.84-1.12-4.33-2.18
	C202.79,685.66,201.43,684.13,200.17,682.13z M82.5,602.52v150.31h584.36V602.52H82.5z M529.03,654.65l2.34-4.61
	c0.36-0.78,0.91-1.31,1.65-1.58c0.28-0.09,0.57-0.14,0.87-0.14c0.6,0,1.29,0.18,2.08,0.53c1.74,0.87,2.8,1.96,3.16,3.27
	c0.17,0.6,0.21,1.23,0.13,1.9c-0.04,0.32-0.11,0.61-0.22,0.86l-0.15,0.38l-1.17,2.58c-0.31,0.62-0.77,1.05-1.37,1.3
	c-0.3,0.16-0.62,0.24-0.95,0.24c-0.26,0-0.54-0.06-0.84-0.17l-4.52-1.73c-0.93-0.37-1.33-1.06-1.21-2.07
	C528.86,655.15,528.92,654.9,529.03,654.65z M243.33,653.96l2.34-4.61c0.36-0.77,0.91-1.3,1.65-1.57c0.28-0.1,0.57-0.14,0.87-0.14
	c0.6,0,1.29,0.17,2.08,0.52c1.74,0.88,2.8,1.97,3.16,3.28c0.17,0.6,0.21,1.23,0.13,1.9c-0.04,0.32-0.11,0.6-0.21,0.85l-0.16,0.38
	l-1.17,2.58c-0.31,0.62-0.77,1.06-1.37,1.31c-0.3,0.16-0.62,0.24-0.95,0.24c-0.26-0.01-0.54-0.06-0.84-0.18l-4.53-1.73
	c-0.92-0.37-1.33-1.06-1.2-2.07C243.16,654.47,243.22,654.21,243.33,653.96z M176.02,693.33c-0.94,1.82-2.27,3.26-3.99,4.33
	c-1.72,1.08-3.56,1.61-5.51,1.61c-1.94-0.01-3.64-0.54-5.09-1.6c-1.45-1.06-2.42-2.48-2.92-4.27c-1.7-6.73-2.55-13.3-2.55-19.71
	c0.02-4.66,0.28-9.04,0.78-13.15c0.78-6.41,2.02-12.34,3.7-17.79c0,0-0.1,0.02-0.22,0.08c-0.13,0.06-0.28,0.11-0.47,0.17
	c-0.18,0.06-0.39,0.13-0.63,0.21c-0.23,0.08-0.4,0.13-0.5,0.15c-2,0.8-3.84,1.95-5.52,3.46c-1.68,1.52-2.68,3.33-3.01,5.44
	c-0.17,0.96-0.74,1.57-1.72,1.82l-0.15,0.03c-0.26,0-0.44-0.14-0.55-0.41c-0.49-1.63-0.63-3.3-0.43-5c0.45-3.69,2.36-6.69,5.73-9
	c2.46-1.67,5.07-2.77,7.82-3.29c0.58-0.11,1.16-0.17,1.73-0.17c1.87,0.01,3.61,0.63,5.22,1.87c1.82,1.43,2.56,3.57,2.21,6.41
	c-0.13,1.1-0.35,2.21-0.65,3.31l-0.36,1.48c-0.99,4.4-1.7,8.41-2.14,12.01c-0.56,4.64-0.79,9.26-0.69,13.88
	c0.17,6.42,1.28,11.49,3.35,15.19c0.37-0.71,0.7-1.44,0.98-2.2c0.18-0.46,0.36-0.91,0.56-1.34c3.21-7.11,6.94-14,11.18-20.67
	c6.45-10.29,13.69-19.22,21.72-26.78c1.38-1.16,4.29-2.26,8.74-3.28l0.22-0.03c0.35,0,0.61,0.15,0.76,0.45
	c0.08,0.13,0.11,0.28,0.09,0.44c-0.03,0.21-0.12,0.42-0.29,0.62c-5.82,5.82-11.19,12.28-16.12,19.37
	c-4.92,7.09-9.21,13.9-12.86,20.42C180.8,683.92,177.99,689.23,176.02,693.33z M326.86,673.59l-1.21,1.44
	c-6.53,7.81-10.8,12.8-12.8,14.95c-3.98,4.21-8.07,7.08-12.27,8.61c-1.9,0.6-3.79,0.89-5.67,0.89c-2.04-0.01-3.68-0.36-4.93-1.05
	c-1.38-0.78-2.55-1.81-3.51-3.07l-0.49-0.66c-0.86-1.54-1.16-3.39-0.89-5.55c0.2-1.65,0.67-3.44,1.41-5.36
	c-0.23,0.27-0.46,0.54-0.7,0.82c-2.22,2.8-4.65,5.42-7.3,7.87c-1.37,1.21-2.86,2.35-4.48,3.41c-1.63,1.07-3.31,1.91-5.05,2.52
	c-0.33,0.16-0.68,0.3-1.05,0.41c-1.18,0.34-2.39,0.53-3.63,0.54c-1.24,0.03-2.44-0.04-3.61-0.17c-1.01-0.12-1.93-0.42-2.76-0.89
	c-0.83-0.47-1.55-1-2.14-1.57c-0.6-0.58-1.22-1.3-1.88-2.18c-0.91-1.67-1.19-3.64-0.83-5.89c0.36-2.25,1.14-4.62,2.35-7.12
	c0.03-0.07,0.07-0.15,0.1-0.22c-0.17,0.21-0.35,0.42-0.53,0.63c-5.89,6.97-9.63,11.24-11.22,12.82c-1.64,1.56-3.6,2.83-5.88,3.81
	c-1.21,0.52-2.4,0.79-3.59,0.78c-1.12,0-2.22-0.22-3.3-0.66c-1.51-0.74-2.63-1.84-3.38-3.31c-1.01-2-1.38-4.11-1.11-6.34
	c0.11-0.97,0.38-1.86,0.79-2.69l1.47-3.02c0.19-0.38,0.37-0.77,0.56-1.14c-1.55,1.69-3.13,3.04-4.75,4.05
	c-1.45,0.83-2.86,1.48-4.23,1.96c-1.36,0.47-2.99,0.82-4.86,1.02c-0.16,0.13-0.31,0.28-0.45,0.44c-2.59,3.7-5.52,6.37-8.8,8.04
	c-3.28,1.67-6.35,1.98-9.22,0.95c-3.18-1.41-5.04-4.15-5.59-8.22c-0.55-4.06,0.35-8.51,2.69-13.35c2.51-4.79,5.65-8.36,9.41-10.69
	c3.77-2.33,7.3-2.91,10.6-1.73c1.47,0.6,2.68,1.56,3.61,2.87c1.49,2.21,2.2,4.83,2.14,7.86c-0.04,2.63-0.56,5.25-1.56,7.84
	l-0.05,0.1c-0.04,0.12-0.1,0.28-0.18,0.49c-0.09,0.2-0.18,0.41-0.27,0.62c1.15-0.14,2.39-0.45,3.69-0.94
	c1.31-0.49,2.63-1.22,3.96-2.18c0.21-0.18,0.42-0.37,0.63-0.55c0.96-0.82,1.85-1.72,2.68-2.68c0.61-0.73,1.2-1.49,1.77-2.27
	c0.23-0.32,0.48-0.64,0.73-0.96c0.31-0.46,0.65-0.85,1.01-1.17s0.79-0.48,1.29-0.48h0.18c1.29-2.56,2.49-4.9,3.59-7.04
	c0.35-0.79,0.91-1.32,1.66-1.62c0.24-0.09,0.52-0.14,0.83-0.14c0.6,0,1.3,0.18,2.11,0.52c2.46,1.25,3.56,2.99,3.29,5.21
	c-0.04,0.3-0.11,0.58-0.21,0.83s-1.87,4.13-5.3,11.64c-3.44,7.51-5.16,11.28-5.16,11.3c-0.01,0.09,0.06,0.14,0.2,0.14
	c0.16,0,0.38-0.03,0.65-0.1c2.58-0.64,5.34-2.27,8.3-4.91c2-1.83,6.6-6.88,13.78-15.15c0.61-0.66,1.35-1,2.23-1.03h0.49
	c0.34-0.5,0.68-0.99,1.03-1.47c1.84-2.43,3.62-4.17,5.34-5.23c1.72-1.05,3.37-1.58,4.94-1.6h0.25c0.71,0,1.4,0.07,2.07,0.21
	c1.27,0.32,2.45,0.81,3.53,1.45c0.79,0.51,1.55,1.08,2.25,1.7c0.2,0.18,0.4,0.37,0.61,0.55c1,1.02,1.59,1.96,1.79,2.85
	c0.2,0.88,0.19,1.73-0.06,2.56c-0.14,0.62-0.43,1.44-0.85,2.46c-0.42,1.02-0.83,1.99-1.23,2.91c-0.28,0.57-0.7,1-1.24,1.29
	c-0.55,0.28-1.12,0.35-1.72,0.21l-2.57-0.58c-0.16-0.05-0.27-0.14-0.32-0.28c-0.05-0.14-0.05-0.29,0.02-0.45
	c0.77-1.6,1.53-3.5,2.3-5.68c0.06-0.36,0.12-0.71,0.16-1.03c0.09-0.76-0.1-1.41-0.58-1.96c-0.25-0.35-0.58-0.56-1-0.63
	c-0.66,0-1.32,0.12-1.96,0.35c-0.82,0.27-1.58,0.66-2.28,1.16c-1.68,1.26-3.09,2.75-4.25,4.47c-1.21,1.69-2.27,3.45-3.17,5.26
	c-0.67,1.35-1.15,2.38-1.45,3.09c-0.13,0.3-0.22,0.5-0.25,0.59c-0.09,0.14-0.25,0.47-0.48,1.01c-0.23,0.54-0.45,1.19-0.67,1.95
	c0,0.04-0.01,0.09-0.01,0.13c-0.01,0.05-0.02,0.09-0.05,0.11c-0.19,0.75-0.25,1.5-0.18,2.22c0.06,0.72,0.36,1.34,0.9,1.84
	c0.1,0.12,0.22,0.23,0.35,0.35c0.35,0.2,0.75,0.36,1.19,0.45c2.57,0.51,4.9,0.46,6.97-0.15c2.07-0.62,3.79-1.42,5.17-2.39
	c1.38-0.97,2.31-1.73,2.81-2.28c1.35-1.38,3.28-3.46,5.78-6.25c2.51-2.8,4.94-5.56,7.32-8.29c0.42-0.47,0.92-0.77,1.49-0.91
	c1.57-2.32,3.23-4.2,4.96-5.65c2.01-1.69,4.22-2.54,6.62-2.53c1.28,0,2.62,0.29,4.03,0.87c1.4,0.58,2.69,1.49,3.87,2.73
	c1.3,1.38,1.96,2.93,1.96,4.65c-0.01,0.49-0.04,0.97-0.1,1.45c-0.16,1.26-0.59,2.65-1.29,4.16c-2.62,5.64-6.32,8.46-11.12,8.45
	c-1.4-0.01-2.85-0.25-4.36-0.73c-1.99-0.66-2.99-1.07-2.99-1.22l-0.09,0.17c-0.46,0.83-0.84,1.8-1.14,2.93l-0.21,1.14
	c-0.18,1.42,0.11,2.47,0.86,3.16c0.26,0.38,0.78,0.64,1.54,0.8c1.02,0.23,1.99,0.35,2.91,0.35c2.01-0.06,3.81-0.42,5.41-1.09
	c2.7-1.12,4.78-2.48,6.24-4.08c2.38-2.38,6.74-7.22,13.1-14.5c0.6-0.66,1.33-1.01,2.19-1.03l1.99,0.01c0.31,0,0.45,0.14,0.42,0.41
	C326.96,673.4,326.92,673.49,326.86,673.59z M461.27,681.86c-2.63,3.12-5.03,5.94-7.22,8.46c-2.18,2.52-3.68,4.17-4.48,4.95
	c-1.62,1.55-3.58,2.82-5.88,3.8c-1.21,0.53-2.42,0.79-3.63,0.79c-1.09-0.01-2.18-0.23-3.27-0.66c-1.47-0.74-2.59-1.85-3.34-3.32
	c-1.03-2-1.42-4.09-1.15-6.27c0.12-1.01,0.39-1.93,0.79-2.75l4.64-9.36c-3.86,1.67-6.73,2.5-8.61,2.5l-0.67-0.08
	c-0.61-0.09-0.94-0.17-1-0.24c-0.81-0.32-1.44-0.78-1.9-1.39c-0.76,1.07-1.58,2.14-2.44,3.21c-1.87,2.24-3.79,3.98-5.77,5.21
	c-1.46,0.83-2.87,1.48-4.23,1.96c-1.36,0.48-2.99,0.82-4.86,1.02c-0.16,0.14-0.31,0.28-0.45,0.45c-2.59,3.69-5.52,6.37-8.8,8.03
	c-3.28,1.67-6.36,1.99-9.22,0.95c-3.18-1.41-5.05-4.15-5.6-8.21c-0.34-2.57-0.11-5.29,0.7-8.17c-0.98,0.78-1.99,1.45-3.03,2
	c-3.65,1.92-7.09,3.07-10.29,3.45c2.41,3.17,3.52,6.71,3.3,10.61c-0.03,0.65-0.08,1.28-0.16,1.9c-0.39,3.24-1.47,6.46-3.22,9.67
	c-1.76,3.21-4.02,5.77-6.77,7.7c-1.97,1.37-3.92,2.05-5.84,2.05c-0.81,0-1.61-0.12-2.38-0.35c-2.03-0.77-3.56-1.93-4.61-3.49
	l-0.53-0.87c-2.15-2.85-3-6.13-2.54-9.85c0.17-1.4,0.55-2.7,1.15-3.89l1.51-3.02c3.07-6.31,5.9-12.01,8.5-17.1
	c3.87-8.21,8.76-18.7,14.67-31.47l5.74-12.35c0.4-0.76,1.01-1.14,1.81-1.13c0.29,0,0.57,0.05,0.84,0.17
	c2.26,1.31,3.63,3.02,4.11,5.11c0.06,0.13,0.07,0.36,0.03,0.68c-0.06,0.44-0.45,1.57-1.2,3.38c-0.68,1.67-2.28,5.24-4.79,10.7
	c-1.59,3.44-5.72,12.21-12.41,26.31c1.25,0.35,2.48,0.52,3.72,0.52c3.47,0.01,6.82-1.17,10.05-3.55c0.5-0.34,1.17-0.88,2.02-1.62
	c0.63-0.48,0.98-0.82,1.05-1.03l0.04-0.07c0.55-0.59,1.08-1.19,1.58-1.78l0.04-0.04c0.25-0.29,0.51-0.58,0.78-0.85
	c0.39-0.54,0.85-0.92,1.37-1.12c1.99-2.76,4.28-4.94,6.87-6.55c3.77-2.33,7.3-2.91,10.6-1.73c1.47,0.6,2.67,1.56,3.61,2.87
	c1.49,2.21,2.2,4.83,2.14,7.86c-0.04,2.64-0.56,5.25-1.56,7.85l-0.05,0.1c-0.04,0.11-0.1,0.27-0.19,0.48
	c-0.08,0.21-0.17,0.41-0.26,0.62c1.15-0.13,2.38-0.45,3.69-0.94c1.31-0.49,2.62-1.22,3.95-2.18c0.21-0.18,0.43-0.36,0.64-0.55
	c0.96-0.82,1.85-1.71,2.68-2.67c0.61-0.74,1.2-1.49,1.77-2.28c0.23-0.31,0.47-0.64,0.73-0.96c0.3-0.44,0.62-0.82,0.97-1.13
	c0.07-0.2,0.16-0.41,0.26-0.62c0.82-1.67,1.63-3.3,2.43-4.87c0.79-1.57,1.37-2.7,1.71-3.38c0.57-1.17,1.41-1.76,2.53-1.75
	c0.59,0,1.29,0.17,2.08,0.52c2.46,1.22,3.55,2.94,3.28,5.17c-0.04,0.32-0.11,0.61-0.21,0.86l-0.12,0.38l-2.09,4.61
	c3.23-1.12,5.7-1.71,7.41-1.77l0.94-0.04l1.78,0.01c1.23,0,2.15,0.47,2.75,1.42c0.4,0.64,0.55,1.32,0.46,2.03
	c-0.04,0.37-0.15,0.74-0.31,1.14c-0.04,0.27-0.22,0.66-0.54,1.17l-1.76,3.88c-1.31,2.82-2.17,4.69-2.57,5.61
	c-1.35,2.93-2.09,4.53-2.22,4.78c-0.21,0.37-0.36,0.72-0.45,1.07c-0.01,0.11,0.07,0.17,0.26,0.17c0.22,0,0.54-0.06,0.99-0.17
	c0.78-0.23,1.31-0.42,1.56-0.58c1.9-0.75,4.01-2.18,6.33-4.29c1.77-1.58,6.44-6.72,14.04-15.43c0.46-0.5,1.02-0.75,1.66-0.75h3.2
	C466.27,675.92,463.89,678.75,461.27,681.86z M607.18,674.26l-1.21,1.44c-6.53,7.81-10.8,12.8-12.8,14.95
	c-3.98,4.21-8.07,7.09-12.27,8.62c-1.9,0.59-3.79,0.88-5.67,0.88c-2.04-0.01-3.69-0.36-4.93-1.05c-1.38-0.78-2.55-1.81-3.51-3.07
	l-0.49-0.66c-0.86-1.54-1.16-3.39-0.89-5.54c0.28-2.37,1.12-4.99,2.5-7.89c-1.43,1.34-2.92,2.42-4.45,3.23
	c-3.66,1.92-7.09,3.07-10.3,3.45c2.42,3.18,3.52,6.72,3.31,10.62c-0.03,0.64-0.09,1.28-0.16,1.89c-0.39,3.24-1.47,6.46-3.23,9.67
	c-1.76,3.21-4.01,5.78-6.76,7.7c-1.98,1.37-3.92,2.06-5.85,2.05c-0.8,0-1.6-0.12-2.38-0.35c-2.02-0.76-3.55-1.92-4.6-3.49
	l-0.53-0.86c-2.15-2.85-3-6.14-2.55-9.85c0.18-1.4,0.56-2.7,1.16-3.89l1.5-3.03c3.08-6.31,5.91-12,8.5-17.1
	c0.14-0.3,0.28-0.59,0.43-0.9c-0.41,0.49-0.85,1.01-1.31,1.56c-5.89,6.96-9.63,11.24-11.22,12.82c-1.64,1.55-3.6,2.82-5.88,3.8
	c-1.21,0.53-2.4,0.79-3.59,0.79c-1.11,0-2.22-0.23-3.3-0.66c-1.51-0.74-2.63-1.85-3.38-3.32c-1.02-2-1.38-4.11-1.11-6.34
	c0.11-0.96,0.38-1.86,0.79-2.68l1.47-3.03c0.35-0.71,0.69-1.41,1.03-2.1c-0.17,0.21-0.36,0.43-0.55,0.66
	c-5.98,7.1-9.72,11.37-11.22,12.81c-1.62,1.56-3.58,2.83-5.89,3.81c-1.2,0.53-2.41,0.79-3.62,0.79c-1.09-0.01-2.18-0.23-3.27-0.66
	c-1.48-0.74-2.59-1.85-3.34-3.32c-1.04-2-1.42-4.09-1.16-6.27c0.13-1.01,0.39-1.93,0.8-2.75l5.44-11.01l5.13-10.21l0.72-1.52
	c5.2-11.12,9.39-19.86,12.57-26.21c0.42-0.76,1.02-1.13,1.81-1.13c0.29,0,0.56,0.06,0.83,0.17c2.27,1.32,3.64,3.02,4.12,5.11
	c0.06,0.14,0.06,0.37,0.02,0.69c-0.08,0.69-1.09,3.2-3.02,7.53c-1.64,3.72-4.11,9.07-7.41,16.07l-2.9,6.26
	c-1.02,2.11-1.67,3.51-1.97,4.19c-4.08,8.95-6.33,13.85-6.74,14.69c-0.34,0.78-0.59,1.32-0.77,1.62c-0.22,0.41-0.34,0.72-0.37,0.93
	c-0.03,0.25,0.1,0.38,0.39,0.38c0.33,0,0.83-0.11,1.5-0.34c2.21-0.8,4.57-2.31,7.07-4.53c1.95-1.74,6.56-6.79,13.82-15.15
	c0.6-0.66,1.32-1,2.17-1.03c1.22-2.4,2.35-4.61,3.39-6.64c0.35-0.78,0.91-1.32,1.66-1.62c0.24-0.09,0.52-0.13,0.83-0.13
	c0.6,0,1.3,0.17,2.11,0.52c2.46,1.25,3.56,2.98,3.29,5.21c-0.04,0.3-0.11,0.57-0.21,0.83c-0.1,0.25-1.87,4.13-5.3,11.64
	c-3.44,7.51-5.16,11.27-5.16,11.27c-0.01,0.12,0.06,0.16,0.2,0.17c0.16,0,0.38-0.04,0.65-0.1c2.58-0.64,5.34-2.28,8.3-4.91
	c2-1.83,6.6-6.88,13.78-15.15c0.6-0.67,1.35-1.01,2.23-1.03h0.1c3.1-6.61,6.67-14.29,10.71-23.05l5.75-12.35
	c0.4-0.75,1-1.13,1.81-1.13c0.29,0,0.56,0.06,0.83,0.17c2.27,1.32,3.64,3.02,4.12,5.11c0.05,0.14,0.06,0.37,0.02,0.69
	c-0.05,0.44-0.45,1.56-1.19,3.37c-0.68,1.68-2.28,5.24-4.8,10.7c-1.58,3.44-5.71,12.21-12.4,26.31c1.24,0.35,2.48,0.53,3.72,0.53
	c3.46,0.01,6.82-1.18,10.05-3.55c0.49-0.35,1.16-0.89,2.02-1.62c0.62-0.48,0.97-0.82,1.05-1.03l0.04-0.07
	c0.55-0.59,1.07-1.19,1.57-1.79l0.04-0.03c0.25-0.3,0.51-0.59,0.79-0.86c0.65-0.9,1.48-1.34,2.47-1.34h0.3
	c1.6-2.36,3.27-4.27,5.02-5.73c2.01-1.7,4.22-2.54,6.62-2.54c1.28,0.01,2.62,0.3,4.03,0.87c1.4,0.58,2.69,1.49,3.87,2.73
	c1.3,1.38,1.96,2.93,1.96,4.66c-0.01,0.48-0.04,0.96-0.1,1.44c-0.16,1.27-0.59,2.65-1.29,4.17c-2.62,5.64-6.32,8.45-11.12,8.44
	c-1.4,0-2.85-0.25-4.36-0.73c-1.99-0.66-2.99-1.07-2.99-1.21l-0.09,0.17c-0.46,0.82-0.84,1.8-1.14,2.92l-0.21,1.14
	c-0.18,1.42,0.11,2.48,0.86,3.17c0.26,0.37,0.77,0.63,1.54,0.79c1.02,0.24,1.99,0.35,2.91,0.35c2.01-0.06,3.81-0.42,5.41-1.08
	c2.7-1.12,4.78-2.48,6.24-4.09c2.38-2.38,6.74-7.21,13.1-14.5c0.6-0.66,1.33-1,2.19-1.03l1.99,0.01c0.31,0,0.45,0.14,0.42,0.41
	C607.27,674.08,607.24,674.17,607.18,674.26z M581.58,683.87c0.88-0.13,1.75-0.58,2.61-1.35c0.85-0.77,1.48-1.52,1.87-2.25
	c0.75-1.63,1.31-2.98,1.68-4.06l0.59-1.65c0.06-0.35,0.11-0.66,0.15-0.93c0.08-0.69,0.02-1.28-0.18-1.76
	c-0.28-0.62-0.73-0.93-1.35-0.93c-0.16,0-0.39,0.03-0.69,0.1c-1.12,0.27-2.18,0.75-3.17,1.44c-2.74,2.06-5.21,5.29-7.41,9.69
	c-0.14,0.3-0.28,0.59-0.43,0.86c1.72,0.7,3.22,1.04,4.51,1.05C580.09,684.08,580.7,684.01,581.58,683.87z M547.78,689.23
	l-8.64,20.06l-0.1,0.2c-0.06,0.12-0.11,0.33-0.15,0.62c-0.01,0.12,0.02,0.2,0.08,0.26s0.25,0.09,0.56,0.09l0.11-0.03
	c5.92-0.66,9.31-4.45,10.15-11.38c0.2-1.67,0.23-3.35,0.08-5.03C549.72,692.35,549.02,690.75,547.78,689.23z M405.54,669.23
	c-0.87-0.3-2.14,0.1-3.81,1.21c-1.66,1.11-3.36,2.79-5.08,5.03c0.26,1.59,0.96,3.23,2.11,4.92c1.15,1.69,3.04,3.08,5.69,4.19
	c0.03-0.09,0.08-0.17,0.14-0.24c0.12-0.22,0.23-0.46,0.33-0.72c1.42-3.25,2.13-6.33,2.13-9.24
	C407.04,671.48,406.54,669.76,405.54,669.23z M392.93,682.6c-0.93,2.98-1.41,5.64-1.44,8c-0.02,2.35,0.33,3.76,1.06,4.22
	c0.71,0.35,1.9,0.08,3.55-0.8c1.65-0.88,3.41-2.43,5.27-4.66c-1.4-0.39-2.85-1.11-4.33-2.18
	C395.55,686.12,394.18,684.6,392.93,682.6z M366.17,688.8l-8.64,20.05l-0.1,0.21c-0.06,0.11-0.11,0.32-0.14,0.62
	c-0.02,0.11,0.01,0.2,0.07,0.26c0.07,0.06,0.25,0.08,0.56,0.09l0.11-0.04c5.93-0.65,9.31-4.44,10.15-11.37
	c0.21-1.68,0.24-3.35,0.08-5.03C368.11,691.91,367.42,690.32,366.17,688.8z M301.26,683.2c0.89-0.13,1.75-0.58,2.61-1.35
	c0.85-0.77,1.48-1.52,1.88-2.26c0.74-1.62,1.3-2.98,1.67-4.05l0.59-1.66c0.06-0.34,0.11-0.65,0.15-0.92
	c0.08-0.69,0.02-1.28-0.18-1.76c-0.28-0.62-0.73-0.93-1.35-0.94c-0.16,0-0.39,0.04-0.69,0.11c-1.12,0.27-2.18,0.75-3.17,1.44
	c-2.74,2.05-5.21,5.28-7.41,9.69c-0.13,0.3-0.28,0.58-0.43,0.86c1.72,0.69,3.22,1.04,4.51,1.04
	C299.77,683.4,300.38,683.34,301.26,683.2z M212.78,668.77c-0.87-0.3-2.14,0.1-3.8,1.21c-1.67,1.11-3.37,2.79-5.09,5.03
	c0.26,1.59,0.96,3.22,2.11,4.91c1.15,1.7,3.05,3.09,5.69,4.2c0.03-0.09,0.08-0.17,0.14-0.24c0.12-0.23,0.23-0.47,0.33-0.72
	c1.42-3.26,2.13-6.34,2.13-9.24C214.29,671.01,213.78,669.3,212.78,668.77z M200.17,682.13c-0.93,2.98-1.41,5.65-1.43,8
	c-0.03,2.36,0.32,3.76,1.05,4.22c0.72,0.35,1.9,0.09,3.55-0.79c1.65-0.89,3.41-2.44,5.27-4.66c-1.4-0.39-2.84-1.12-4.33-2.18
	C202.79,685.66,201.43,684.13,200.17,682.13z M307.98,671.2c-0.28-0.62-0.73-0.93-1.35-0.94c-0.16,0-0.39,0.04-0.69,0.11
	c-1.12,0.27-2.18,0.75-3.17,1.44c-2.74,2.05-5.21,5.28-7.41,9.69c-0.13,0.3-0.28,0.58-0.43,0.86c1.72,0.69,3.22,1.04,4.51,1.04
	c0.33,0,0.94-0.06,1.82-0.2c0.89-0.13,1.75-0.58,2.61-1.35c0.85-0.77,1.48-1.52,1.88-2.26c0.74-1.62,1.3-2.98,1.67-4.05l0.59-1.66
	c0.06-0.34,0.11-0.65,0.15-0.92C308.24,672.27,308.18,671.68,307.98,671.2z M368.26,693.59c-0.15-1.68-0.84-3.27-2.09-4.79
	l-8.64,20.05l-0.1,0.21c-0.06,0.11-0.11,0.32-0.14,0.62c-0.02,0.11,0.01,0.2,0.07,0.26c0.07,0.06,0.25,0.08,0.56,0.09l0.11-0.04
	c5.93-0.65,9.31-4.44,10.15-11.37C368.39,696.94,368.42,695.27,368.26,693.59z M397.04,687.18c-1.49-1.06-2.86-2.58-4.11-4.58
	c-0.93,2.98-1.41,5.64-1.44,8c-0.02,2.35,0.33,3.76,1.06,4.22c0.71,0.35,1.9,0.08,3.55-0.8c1.65-0.88,3.41-2.43,5.27-4.66
	C399.97,688.97,398.52,688.25,397.04,687.18z M405.54,669.23c-0.87-0.3-2.14,0.1-3.81,1.21c-1.66,1.11-3.36,2.79-5.08,5.03
	c0.26,1.59,0.96,3.23,2.11,4.92c1.15,1.69,3.04,3.08,5.69,4.19c0.03-0.09,0.08-0.17,0.14-0.24c0.12-0.22,0.23-0.46,0.33-0.72
	c1.42-3.25,2.13-6.33,2.13-9.24C407.04,671.48,406.54,669.76,405.54,669.23z M549.87,694.02c-0.15-1.67-0.85-3.27-2.09-4.79
	l-8.64,20.06l-0.1,0.2c-0.06,0.12-0.11,0.33-0.15,0.62c-0.01,0.12,0.02,0.2,0.08,0.26s0.25,0.09,0.56,0.09l0.11-0.03
	c5.92-0.66,9.31-4.45,10.15-11.38C549.99,697.38,550.02,695.7,549.87,694.02z M588.3,671.87c-0.28-0.62-0.73-0.93-1.35-0.93
	c-0.16,0-0.39,0.03-0.69,0.1c-1.12,0.27-2.18,0.75-3.17,1.44c-2.74,2.06-5.21,5.29-7.41,9.69c-0.14,0.3-0.28,0.59-0.43,0.86
	c1.72,0.7,3.22,1.04,4.51,1.05c0.33,0,0.94-0.07,1.82-0.21c0.88-0.13,1.75-0.58,2.61-1.35c0.85-0.77,1.48-1.52,1.87-2.25
	c0.75-1.63,1.31-2.98,1.68-4.06l0.59-1.65c0.06-0.35,0.11-0.66,0.15-0.93C588.56,672.94,588.5,672.35,588.3,671.87z M588.3,671.87
	c-0.28-0.62-0.73-0.93-1.35-0.93c-0.16,0-0.39,0.03-0.69,0.1c-1.12,0.27-2.18,0.75-3.17,1.44c-2.74,2.06-5.21,5.29-7.41,9.69
	c-0.14,0.3-0.28,0.59-0.43,0.86c1.72,0.7,3.22,1.04,4.51,1.05c0.33,0,0.94-0.07,1.82-0.21c0.88-0.13,1.75-0.58,2.61-1.35
	c0.85-0.77,1.48-1.52,1.87-2.25c0.75-1.63,1.31-2.98,1.68-4.06l0.59-1.65c0.06-0.35,0.11-0.66,0.15-0.93
	C588.56,672.94,588.5,672.35,588.3,671.87z M549.87,694.02c-0.15-1.67-0.85-3.27-2.09-4.79l-8.64,20.06l-0.1,0.2
	c-0.06,0.12-0.11,0.33-0.15,0.62c-0.01,0.12,0.02,0.2,0.08,0.26s0.25,0.09,0.56,0.09l0.11-0.03c5.92-0.66,9.31-4.45,10.15-11.38
	C549.99,697.38,550.02,695.7,549.87,694.02z M405.54,669.23c-0.87-0.3-2.14,0.1-3.81,1.21c-1.66,1.11-3.36,2.79-5.08,5.03
	c0.26,1.59,0.96,3.23,2.11,4.92c1.15,1.69,3.04,3.08,5.69,4.19c0.03-0.09,0.08-0.17,0.14-0.24c0.12-0.22,0.23-0.46,0.33-0.72
	c1.42-3.25,2.13-6.33,2.13-9.24C407.04,671.48,406.54,669.76,405.54,669.23z M397.04,687.18c-1.49-1.06-2.86-2.58-4.11-4.58
	c-0.93,2.98-1.41,5.64-1.44,8c-0.02,2.35,0.33,3.76,1.06,4.22c0.71,0.35,1.9,0.08,3.55-0.8c1.65-0.88,3.41-2.43,5.27-4.66
	C399.97,688.97,398.52,688.25,397.04,687.18z M368.26,693.59c-0.15-1.68-0.84-3.27-2.09-4.79l-8.64,20.05l-0.1,0.21
	c-0.06,0.11-0.11,0.32-0.14,0.62c-0.02,0.11,0.01,0.2,0.07,0.26c0.07,0.06,0.25,0.08,0.56,0.09l0.11-0.04
	c5.93-0.65,9.31-4.44,10.15-11.37C368.39,696.94,368.42,695.27,368.26,693.59z M307.98,671.2c-0.28-0.62-0.73-0.93-1.35-0.94
	c-0.16,0-0.39,0.04-0.69,0.11c-1.12,0.27-2.18,0.75-3.17,1.44c-2.74,2.05-5.21,5.28-7.41,9.69c-0.13,0.3-0.28,0.58-0.43,0.86
	c1.72,0.69,3.22,1.04,4.51,1.04c0.33,0,0.94-0.06,1.82-0.2c0.89-0.13,1.75-0.58,2.61-1.35c0.85-0.77,1.48-1.52,1.88-2.26
	c0.74-1.62,1.3-2.98,1.67-4.05l0.59-1.66c0.06-0.34,0.11-0.65,0.15-0.92C308.24,672.27,308.18,671.68,307.98,671.2z M307.98,671.2
	c-0.28-0.62-0.73-0.93-1.35-0.94c-0.16,0-0.39,0.04-0.69,0.11c-1.12,0.27-2.18,0.75-3.17,1.44c-2.74,2.05-5.21,5.28-7.41,9.69
	c-0.13,0.3-0.28,0.58-0.43,0.86c1.72,0.69,3.22,1.04,4.51,1.04c0.33,0,0.94-0.06,1.82-0.2c0.89-0.13,1.75-0.58,2.61-1.35
	c0.85-0.77,1.48-1.52,1.88-2.26c0.74-1.62,1.3-2.98,1.67-4.05l0.59-1.66c0.06-0.34,0.11-0.65,0.15-0.92
	C308.24,672.27,308.18,671.68,307.98,671.2z M368.26,693.59c-0.15-1.68-0.84-3.27-2.09-4.79l-8.64,20.05l-0.1,0.21
	c-0.06,0.11-0.11,0.32-0.14,0.62c-0.02,0.11,0.01,0.2,0.07,0.26c0.07,0.06,0.25,0.08,0.56,0.09l0.11-0.04
	c5.93-0.65,9.31-4.44,10.15-11.37C368.39,696.94,368.42,695.27,368.26,693.59z M397.04,687.18c-1.49-1.06-2.86-2.58-4.11-4.58
	c-0.93,2.98-1.41,5.64-1.44,8c-0.02,2.35,0.33,3.76,1.06,4.22c0.71,0.35,1.9,0.08,3.55-0.8c1.65-0.88,3.41-2.43,5.27-4.66
	C399.97,688.97,398.52,688.25,397.04,687.18z M405.54,669.23c-0.87-0.3-2.14,0.1-3.81,1.21c-1.66,1.11-3.36,2.79-5.08,5.03
	c0.26,1.59,0.96,3.23,2.11,4.92c1.15,1.69,3.04,3.08,5.69,4.19c0.03-0.09,0.08-0.17,0.14-0.24c0.12-0.22,0.23-0.46,0.33-0.72
	c1.42-3.25,2.13-6.33,2.13-9.24C407.04,671.48,406.54,669.76,405.54,669.23z M405.54,669.23c-0.87-0.3-2.14,0.1-3.81,1.21
	c-1.66,1.11-3.36,2.79-5.08,5.03c0.26,1.59,0.96,3.23,2.11,4.92c1.15,1.69,3.04,3.08,5.69,4.19c0.03-0.09,0.08-0.17,0.14-0.24
	c0.12-0.22,0.23-0.46,0.33-0.72c1.42-3.25,2.13-6.33,2.13-9.24C407.04,671.48,406.54,669.76,405.54,669.23z M397.04,687.18
	c-1.49-1.06-2.86-2.58-4.11-4.58c-0.93,2.98-1.41,5.64-1.44,8c-0.02,2.35,0.33,3.76,1.06,4.22c0.71,0.35,1.9,0.08,3.55-0.8
	c1.65-0.88,3.41-2.43,5.27-4.66C399.97,688.97,398.52,688.25,397.04,687.18z M368.26,693.59c-0.15-1.68-0.84-3.27-2.09-4.79
	l-8.64,20.05l-0.1,0.21c-0.06,0.11-0.11,0.32-0.14,0.62c-0.02,0.11,0.01,0.2,0.07,0.26c0.07,0.06,0.25,0.08,0.56,0.09l0.11-0.04
	c5.93-0.65,9.31-4.44,10.15-11.37C368.39,696.94,368.42,695.27,368.26,693.59z M307.98,671.2c-0.28-0.62-0.73-0.93-1.35-0.94
	c-0.16,0-0.39,0.04-0.69,0.11c-1.12,0.27-2.18,0.75-3.17,1.44c-2.74,2.05-5.21,5.28-7.41,9.69c-0.13,0.3-0.28,0.58-0.43,0.86
	c1.72,0.69,3.22,1.04,4.51,1.04c0.33,0,0.94-0.06,1.82-0.2c0.89-0.13,1.75-0.58,2.61-1.35c0.85-0.77,1.48-1.52,1.88-2.26
	c0.74-1.62,1.3-2.98,1.67-4.05l0.59-1.66c0.06-0.34,0.11-0.65,0.15-0.92C308.24,672.27,308.18,671.68,307.98,671.2z M307.98,671.2
	c-0.28-0.62-0.73-0.93-1.35-0.94c-0.16,0-0.39,0.04-0.69,0.11c-1.12,0.27-2.18,0.75-3.17,1.44c-2.74,2.05-5.21,5.28-7.41,9.69
	c-0.13,0.3-0.28,0.58-0.43,0.86c1.72,0.69,3.22,1.04,4.51,1.04c0.33,0,0.94-0.06,1.82-0.2c0.89-0.13,1.75-0.58,2.61-1.35
	c0.85-0.77,1.48-1.52,1.88-2.26c0.74-1.62,1.3-2.98,1.67-4.05l0.59-1.66c0.06-0.34,0.11-0.65,0.15-0.92
	C308.24,672.27,308.18,671.68,307.98,671.2z M368.26,693.59c-0.15-1.68-0.84-3.27-2.09-4.79l-8.64,20.05l-0.1,0.21
	c-0.06,0.11-0.11,0.32-0.14,0.62c-0.02,0.11,0.01,0.2,0.07,0.26c0.07,0.06,0.25,0.08,0.56,0.09l0.11-0.04
	c5.93-0.65,9.31-4.44,10.15-11.37C368.39,696.94,368.42,695.27,368.26,693.59z M397.04,687.18c-1.49-1.06-2.86-2.58-4.11-4.58
	c-0.93,2.98-1.41,5.64-1.44,8c-0.02,2.35,0.33,3.76,1.06,4.22c0.71,0.35,1.9,0.08,3.55-0.8c1.65-0.88,3.41-2.43,5.27-4.66
	C399.97,688.97,398.52,688.25,397.04,687.18z M405.54,669.23c-0.87-0.3-2.14,0.1-3.81,1.21c-1.66,1.11-3.36,2.79-5.08,5.03
	c0.26,1.59,0.96,3.23,2.11,4.92c1.15,1.69,3.04,3.08,5.69,4.19c0.03-0.09,0.08-0.17,0.14-0.24c0.12-0.22,0.23-0.46,0.33-0.72
	c1.42-3.25,2.13-6.33,2.13-9.24C407.04,671.48,406.54,669.76,405.54,669.23z M405.54,669.23c-0.87-0.3-2.14,0.1-3.81,1.21
	c-1.66,1.11-3.36,2.79-5.08,5.03c0.26,1.59,0.96,3.23,2.11,4.92c1.15,1.69,3.04,3.08,5.69,4.19c0.03-0.09,0.08-0.17,0.14-0.24
	c0.12-0.22,0.23-0.46,0.33-0.72c1.42-3.25,2.13-6.33,2.13-9.24C407.04,671.48,406.54,669.76,405.54,669.23z M397.04,687.18
	c-1.49-1.06-2.86-2.58-4.11-4.58c-0.93,2.98-1.41,5.64-1.44,8c-0.02,2.35,0.33,3.76,1.06,4.22c0.71,0.35,1.9,0.08,3.55-0.8
	c1.65-0.88,3.41-2.43,5.27-4.66C399.97,688.97,398.52,688.25,397.04,687.18z M368.26,693.59c-0.15-1.68-0.84-3.27-2.09-4.79
	l-8.64,20.05l-0.1,0.21c-0.06,0.11-0.11,0.32-0.14,0.62c-0.02,0.11,0.01,0.2,0.07,0.26c0.07,0.06,0.25,0.08,0.56,0.09l0.11-0.04
	c5.93-0.65,9.31-4.44,10.15-11.37C368.39,696.94,368.42,695.27,368.26,693.59z M307.98,671.2c-0.28-0.62-0.73-0.93-1.35-0.94
	c-0.16,0-0.39,0.04-0.69,0.11c-1.12,0.27-2.18,0.75-3.17,1.44c-2.74,2.05-5.21,5.28-7.41,9.69c-0.13,0.3-0.28,0.58-0.43,0.86
	c1.72,0.69,3.22,1.04,4.51,1.04c0.33,0,0.94-0.06,1.82-0.2c0.89-0.13,1.75-0.58,2.61-1.35c0.85-0.77,1.48-1.52,1.88-2.26
	c0.74-1.62,1.3-2.98,1.67-4.05l0.59-1.66c0.06-0.34,0.11-0.65,0.15-0.92C308.24,672.27,308.18,671.68,307.98,671.2z M307.98,671.2
	c-0.28-0.62-0.73-0.93-1.35-0.94c-0.16,0-0.39,0.04-0.69,0.11c-1.12,0.27-2.18,0.75-3.17,1.44c-2.74,2.05-5.21,5.28-7.41,9.69
	c-0.13,0.3-0.28,0.58-0.43,0.86c1.72,0.69,3.22,1.04,4.51,1.04c0.33,0,0.94-0.06,1.82-0.2c0.89-0.13,1.75-0.58,2.61-1.35
	c0.85-0.77,1.48-1.52,1.88-2.26c0.74-1.62,1.3-2.98,1.67-4.05l0.59-1.66c0.06-0.34,0.11-0.65,0.15-0.92
	C308.24,672.27,308.18,671.68,307.98,671.2z M368.26,693.59c-0.15-1.68-0.84-3.27-2.09-4.79l-8.64,20.05l-0.1,0.21
	c-0.06,0.11-0.11,0.32-0.14,0.62c-0.02,0.11,0.01,0.2,0.07,0.26c0.07,0.06,0.25,0.08,0.56,0.09l0.11-0.04
	c5.93-0.65,9.31-4.44,10.15-11.37C368.39,696.94,368.42,695.27,368.26,693.59z M397.04,687.18c-1.49-1.06-2.86-2.58-4.11-4.58
	c-0.93,2.98-1.41,5.64-1.44,8c-0.02,2.35,0.33,3.76,1.06,4.22c0.71,0.35,1.9,0.08,3.55-0.8c1.65-0.88,3.41-2.43,5.27-4.66
	C399.97,688.97,398.52,688.25,397.04,687.18z M405.54,669.23c-0.87-0.3-2.14,0.1-3.81,1.21c-1.66,1.11-3.36,2.79-5.08,5.03
	c0.26,1.59,0.96,3.23,2.11,4.92c1.15,1.69,3.04,3.08,5.69,4.19c0.03-0.09,0.08-0.17,0.14-0.24c0.12-0.22,0.23-0.46,0.33-0.72
	c1.42-3.25,2.13-6.33,2.13-9.24C407.04,671.48,406.54,669.76,405.54,669.23z M405.54,669.23c-0.87-0.3-2.14,0.1-3.81,1.21
	c-1.66,1.11-3.36,2.79-5.08,5.03c0.26,1.59,0.96,3.23,2.11,4.92c1.15,1.69,3.04,3.08,5.69,4.19c0.03-0.09,0.08-0.17,0.14-0.24
	c0.12-0.22,0.23-0.46,0.33-0.72c1.42-3.25,2.13-6.33,2.13-9.24C407.04,671.48,406.54,669.76,405.54,669.23z M397.04,687.18
	c-1.49-1.06-2.86-2.58-4.11-4.58c-0.93,2.98-1.41,5.64-1.44,8c-0.02,2.35,0.33,3.76,1.06,4.22c0.71,0.35,1.9,0.08,3.55-0.8
	c1.65-0.88,3.41-2.43,5.27-4.66C399.97,688.97,398.52,688.25,397.04,687.18z M368.26,693.59c-0.15-1.68-0.84-3.27-2.09-4.79
	l-8.64,20.05l-0.1,0.21c-0.06,0.11-0.11,0.32-0.14,0.62c-0.02,0.11,0.01,0.2,0.07,0.26c0.07,0.06,0.25,0.08,0.56,0.09l0.11-0.04
	c5.93-0.65,9.31-4.44,10.15-11.37C368.39,696.94,368.42,695.27,368.26,693.59z M307.98,671.2c-0.28-0.62-0.73-0.93-1.35-0.94
	c-0.16,0-0.39,0.04-0.69,0.11c-1.12,0.27-2.18,0.75-3.17,1.44c-2.74,2.05-5.21,5.28-7.41,9.69c-0.13,0.3-0.28,0.58-0.43,0.86
	c1.72,0.69,3.22,1.04,4.51,1.04c0.33,0,0.94-0.06,1.82-0.2c0.89-0.13,1.75-0.58,2.61-1.35c0.85-0.77,1.48-1.52,1.88-2.26
	c0.74-1.62,1.3-2.98,1.67-4.05l0.59-1.66c0.06-0.34,0.11-0.65,0.15-0.92C308.24,672.27,308.18,671.68,307.98,671.2z M307.98,671.2
	c-0.28-0.62-0.73-0.93-1.35-0.94c-0.16,0-0.39,0.04-0.69,0.11c-1.12,0.27-2.18,0.75-3.17,1.44c-2.74,2.05-5.21,5.28-7.41,9.69
	c-0.13,0.3-0.28,0.58-0.43,0.86c1.72,0.69,3.22,1.04,4.51,1.04c0.33,0,0.94-0.06,1.82-0.2c0.89-0.13,1.75-0.58,2.61-1.35
	c0.85-0.77,1.48-1.52,1.88-2.26c0.74-1.62,1.3-2.98,1.67-4.05l0.59-1.66c0.06-0.34,0.11-0.65,0.15-0.92
	C308.24,672.27,308.18,671.68,307.98,671.2z M307.98,671.2c-0.28-0.62-0.73-0.93-1.35-0.94c-0.16,0-0.39,0.04-0.69,0.11
	c-1.12,0.27-2.18,0.75-3.17,1.44c-2.74,2.05-5.21,5.28-7.41,9.69c-0.13,0.3-0.28,0.58-0.43,0.86c1.72,0.69,3.22,1.04,4.51,1.04
	c0.33,0,0.94-0.06,1.82-0.2c0.89-0.13,1.75-0.58,2.61-1.35c0.85-0.77,1.48-1.52,1.88-2.26c0.74-1.62,1.3-2.98,1.67-4.05l0.59-1.66
	c0.06-0.34,0.11-0.65,0.15-0.92C308.24,672.27,308.18,671.68,307.98,671.2z"/>
<polygon class="st0" points="730.78,706.36 694.63,631.19 730.78,556.04 609.56,556.04 679.7,597.88 679.7,706.36 "/>
<polygon class="st1" points="41.87,153.48 68.02,133.38 125.63,177.11 125.88,176.92 83.36,121.59 105.24,104.77 174.24,194.55 
	148.59,214.27 90.38,170.8 90.13,170.99 132.75,226.44 110.87,243.26 "/>
<path class="st1" d="M151.3,79.83l33.75-15.43l72.19,91.49l-28.55,13.06l-10.99-16.77l-21.34,9.76l5.51,19.28l-28.55,13.06
	L151.3,79.83z M177.95,93.11l-0.29,0.13l12.63,47.06l15-6.86L177.95,93.11z"/>
<path class="st1" d="M284.8,70.55c-2.7-12.56-5.83-15.78-11.41-14.58c-8.84,1.9-8.03,10.16-1.6,40.09
	c6.44,29.92,9.1,37.78,17.94,35.89c7.13-1.54,7.35-8.07,2.85-29l27.91-6l1.77,8.22c6.67,31.01-9.87,42.35-28.32,46.32
	c-32.4,6.97-43.04-7.78-51.91-49.02c-9.11-42.33-2.76-59.59,27.16-66.02c26.05-5.6,38.75,5.94,43.35,27.34l1.5,6.98l-27.91,6
	L284.8,70.55z"/>
<path class="st1" d="M373.93,25.8c30.13,0.49,40.16,17.15,39.47,59.48c-0.69,42.34-11.26,58.66-41.39,58.17
	c-30.13-0.49-40.16-17.15-39.47-59.48C333.23,41.63,343.8,25.31,373.93,25.8 M372.34,123.47c9.04,0.15,10.12-8.08,10.62-38.68
	c0.5-30.6-0.32-38.86-9.36-39.01c-9.04-0.15-10.12,8.08-10.62,38.68C362.49,115.06,363.3,123.32,372.34,123.47"/>
<path class="st1" d="M441.41,31.59l43.21,9.55C506.6,46,513.26,62.9,508.98,82.26c-5,22.61-20.45,31.54-43.84,26.37l-10.07-2.23
	l-9.31,42.12l-28.8-6.37L441.41,31.59z M459.67,85.65l5.42,1.2c7.28,1.61,12.07-1.71,14.13-11.01c2.02-9.14-0.89-14.33-8.17-15.94
	l-5.42-1.2L459.67,85.65z"/>
<polygon class="st1" points="543.75,57.66 570.46,70.17 552.84,107.79 569.2,115.47 586.83,77.84 613.54,90.36 565.5,192.89 
	538.79,180.37 558.57,138.15 542.2,130.48 522.42,172.7 495.71,160.18 "/>
<path class="st1" d="M656.76,119.44l29.29,22.78l-47.74,106.32l-24.79-19.28l9.79-17.5l-18.53-14.41l-14.55,13.8l-24.79-19.28
	L656.76,119.44z M657.31,149.21l-0.25-0.19l-35.89,32.96l13.02,10.13L657.31,149.21z"/>
<path class="st1" d="M155.13,385.45c18.45,0.51,33.63-13.83,34.13-32.07c0.51-18.23-13.85-33.4-32.3-33.91
	c-18.23-0.51-33.41,13.84-33.91,32.07C122.54,369.78,136.9,384.94,155.13,385.45"/>
<path class="st2" d="M227.69,612.5c-28.11-19.41-48.1-49.55-54.05-84.37l-61.55-29.18C138.07,547.5,178.42,587.34,227.69,612.5"/>
<path class="st3" d="M179.35,462.28l-94.79-42.39c2.94,16.26,7.32,32.03,13.04,47.16l74.33,34.18
	C172.45,487.83,174.89,474.48,179.35,462.28"/>
<path class="st4" d="M190.23,440.87L80.97,391.45c0.7,9.62,1.91,19.11,3.59,28.44l94.79,42.39
	C182.17,454.59,185.78,447.36,190.23,440.87"/>
<path class="st4" d="M171.93,501.23L97.6,467.05c4.15,10.99,9,21.63,14.49,31.89l61.55,29.18c-1.4-8.21-2.03-16.69-1.79-25.35
	C171.87,502.26,171.91,501.75,171.93,501.23"/>
<path class="st5" d="M251.13,410.06c8.25,0.23,16.25,1.75,23.56,4.56c-56-41.31-84.66-10.61-124.17-11.7
	c-65.36-1.82-50.56-120-39.53-157.05c-18.57,35.32-29.47,75.43-30.66,118.18c-0.26,9.24-0.01,18.38,0.64,27.41l109.26,49.42
	C203.24,421.9,223.33,409.28,251.13,410.06"/>
<path class="st1" d="M592.26,390.68c-18.45,0.51-33.63-13.83-34.14-32.07c-0.51-18.23,13.85-33.4,32.3-33.91
	c18.23-0.51,33.41,13.84,33.91,32.07C624.84,375.01,610.49,390.17,592.26,390.68"/>
<path class="st2" d="M519.69,617.73c28.11-19.41,48.1-49.54,54.05-84.37l61.55-29.18C609.32,552.73,568.96,592.57,519.69,617.73"/>
<path class="st3" d="M568.03,467.52l94.79-42.39c-2.94,16.26-7.32,32.03-13.04,47.16l-74.33,34.18
	C574.94,493.06,572.49,479.71,568.03,467.52"/>
<path class="st4" d="M557.15,446.1l109.26-49.42c-0.7,9.62-1.91,19.11-3.59,28.44l-94.79,42.39
	C565.22,459.82,561.6,452.59,557.15,446.1"/>
<path class="st4" d="M575.46,506.46l74.33-34.18c-4.15,10.99-9,21.63-14.49,31.89l-61.55,29.18c1.4-8.21,2.03-16.69,1.79-25.35
	C575.51,507.49,575.48,506.98,575.46,506.46"/>
<path class="st5" d="M496.25,415.29c-8.25,0.23-16.25,1.76-23.56,4.56c56-41.3,84.66-10.61,124.17-11.7
	c65.36-1.82,50.56-120,39.53-157.06c18.57,35.32,29.47,75.43,30.66,118.18c0.26,9.24,0.01,18.38-0.64,27.41L557.15,446.1
	C544.15,427.14,524.06,414.52,496.25,415.29"/>
<rect x="-220.6" y="-31.64" class="st6" width="1190.55" height="841.89"/>
<g>
	<path class="st7" d="M460.19,638.78l34.88-70.73c0,0-41.06-67.83-83.84-141.99l0.01-0.01l-35.98-63.36l-0.01,0.02
		c-26.61-47.73-49.14-90.67-56.51-111.47c-45.05,27.13-34.39,65.88-31,79.45c1.21,4.83,23.42,45.28,51.52,95.37l-0.01,0.02l36,63.77
		l0,0C417.93,565.17,460.19,638.78,460.19,638.78"/>
	<path class="st7" d="M337.85,428.48c-42.12,72.92-82.02,138.85-82.02,138.85l34.88,70.73c0,0,40.93-71.31,82.92-145.36l-35.8-64.17
		L337.85,428.48z"/>
	<path class="st7" d="M463.17,329.96c3.39-13.56,14.05-52.32-31-79.45c-7.27,20.51-29.28,62.55-55.41,109.49l35.88,63.56
		C440.27,374.29,461.98,334.73,463.17,329.96"/>
	<path class="st7" d="M377.96,235.01c65.03,0,82.47,35.24,89.74,54.86c-5.09-28.7-18.89-56.8-21.72-62.89
		c-8.32-18.38-24.79-42.84-71.29-42.84c-57.77,0-73.63,48.56-80.17,64.91c-6.54,16.35-12.84,44.45-12.84,44.45
		C291.85,267.35,310.01,235.01,377.96,235.01"/>
</g>
</svg>
